<svg width="333" height="261" viewBox="0 0 333 261" fill="none" xmlns="http://www.w3.org/2000/svg">
<path d="M192.92 27.102L190.882 47.1986C190.123 54.6846 195.345 61.4592 202.778 62.6302L222.731 65.774L202.635 63.7361C195.149 62.977 188.374 68.1994 187.203 75.6321L184.059 95.5856L186.097 75.489C186.856 68.003 181.634 61.2284 174.201 60.0574L154.248 56.9136L174.344 58.9515C181.83 59.7106 188.605 54.4882 189.776 47.0555L192.92 27.102Z" fill="white"/>
<path d="M126.709 159.927L124.879 177.973C124.197 184.695 128.887 190.779 135.561 191.83L153.478 194.653L135.432 192.823C128.71 192.142 122.627 196.831 121.575 203.505L118.752 221.423L120.582 203.377C121.264 196.655 116.575 190.571 109.9 189.52L91.9828 186.697L110.029 188.527C116.751 189.209 122.834 184.519 123.886 177.845L126.709 159.927Z" fill="white"/>
<path d="M300.283 101.054C304.268 119.077 293.297 138.892 271.715 156.388C250.185 173.842 218.337 188.764 181.272 196.958C144.206 205.152 109.037 205.046 82.1552 198.294C55.2089 191.526 36.9076 178.182 32.9233 160.159C28.9389 142.136 39.9095 122.321 61.4917 104.825C83.0219 87.3705 114.869 72.4488 151.935 64.2546C189 56.0605 224.17 56.1667 251.051 62.9184C277.998 69.6864 296.299 83.0305 300.283 101.054Z" stroke="white" stroke-width="2"/>
</svg>
