<svg width="78" height="93" viewBox="0 0 78 93" fill="none" xmlns="http://www.w3.org/2000/svg">
<path d="M62.3176 25.9956C62.4248 25.6988 62.5142 25.4577 62.585 25.1983C62.9195 23.8461 62.8296 22.5175 62.5177 21.1547C62.07 19.2579 61.2184 17.5507 60.1647 15.9383C58.4152 13.2816 56.1904 11.0369 53.6743 9.12818C49.9465 6.29222 45.8223 4.27364 41.3378 2.9981C38.8176 2.28982 36.2824 1.85874 33.6795 1.94556C32.738 1.9754 31.8161 2.09733 30.8946 2.2562C30.3602 2.35499 29.8463 2.61974 29.332 2.84756C29.1482 2.92365 28.9645 2.99974 28.815 2.8538C28.7211 2.72566 28.6263 2.52366 28.6245 2.37594C28.6388 2.02488 28.8759 1.78194 29.17 1.66759C29.7578 1.40194 30.3264 1.08113 30.9529 0.962759C31.966 0.747384 32.9987 0.624111 34.051 0.59294C36.0438 0.458075 38.0599 0.710751 40.0229 1.16721C46.8755 2.78351 52.8791 5.97981 57.907 10.9608C60.15 13.1868 61.9903 15.7131 63.1525 18.6723C64.1626 21.2641 64.5818 23.863 63.5438 26.6087C63.7485 26.7355 63.9527 26.8254 64.1387 26.9339C66.5735 28.2157 68.9001 29.7205 70.9904 31.542C73.0247 33.3088 74.8032 35.3003 76.0144 37.7234C76.393 38.4945 76.6983 39.3034 76.9297 40.1132C77.9936 44.1078 76.4845 47.5979 72.8894 49.6358C71.5871 50.3718 70.1891 50.8319 68.7342 51.1634C65.8977 51.7886 63.0176 51.8603 60.1344 51.6735C59.3398 51.6277 58.5629 51.5263 57.7496 51.4622C57.5832 51.4458 57.4354 51.4476 57.1952 51.432C57.2721 51.6896 57.3304 51.929 57.3883 52.1314C57.9841 54.0633 58.2667 56.0544 58.014 58.0705C57.712 60.5857 56.6855 62.7588 54.7857 64.4808C53.6529 65.4917 52.3871 66.1903 50.9526 66.6878C48.6906 67.4723 46.3475 67.6667 43.964 67.5662C43.6499 67.5516 43.3357 67.5369 42.966 67.5044C42.9691 67.7629 42.9905 68.0028 42.9932 68.2243C43.0942 70.4762 42.6395 72.587 41.2954 74.45C40.3331 75.8097 39.0521 76.7855 37.5651 77.5237C35.6559 78.4701 33.6484 78.9191 31.5452 79.0922C28.6304 79.349 25.7463 79.0884 22.8947 78.458C22.6726 78.4237 22.4319 78.3712 22.1543 78.3192C22.1761 78.5959 22.197 78.7988 22.2184 79.0386C22.5063 81.4729 22.6835 83.9085 22.4913 86.3485C22.4126 87.476 22.2413 88.5861 22.0331 89.6967C21.8952 90.5109 21.5909 91.3087 21.1193 92.0162C20.7749 92.5559 20.4452 92.7815 19.9295 92.8985C19.9291 92.8616 19.9099 92.8064 19.9099 92.8064C20.5128 92.2636 20.7811 91.5401 20.9751 90.7806C21.2749 89.6135 21.3714 88.4304 21.3941 87.2482C21.4683 84.2186 21.2102 81.1931 20.7861 78.1879C20.767 78.1328 20.7478 78.0776 20.7278 77.9486C20.561 77.8952 20.3754 77.8236 20.1716 77.7706C15.2412 76.2788 10.7438 73.9323 6.75259 70.6933C4.62664 68.983 2.73783 67.0298 1.37938 64.6454C0.889035 63.8018 0.527727 62.9381 0.276312 61.9993C0.101436 61.2812 0.03735 60.5617 0.120978 59.8405C0.341628 58.2311 1.21457 57.1126 2.722 56.5403C3.76983 56.1398 4.84079 56.1269 5.95047 56.2613C8.22544 56.5478 10.249 57.4282 12.1294 58.6798C16.3003 61.5104 19.0986 65.3733 20.4682 70.2138C21.0084 72.1279 21.3466 74.1368 21.7765 76.0891C21.8161 76.3103 21.8557 76.5314 21.8953 76.7525C21.9696 76.7886 22.007 76.8251 22.0626 76.8429C25.4522 77.6699 28.8915 78.0347 32.3763 77.5679C34.3491 77.304 36.2081 76.7829 37.9126 75.7097C40.7165 73.9214 42.0464 70.8766 41.524 67.3741C41.3389 67.3394 41.0981 67.2869 40.8761 67.2526C36.4908 66.5484 32.3742 65.1576 28.5606 62.8583C26.9793 61.8986 25.5074 60.8268 24.2535 59.4568C23.5238 58.6715 22.8488 57.8302 22.4675 56.8375C22.2392 56.2862 22.0657 55.6789 22.0216 55.0885C21.8943 53.7234 22.5826 52.607 23.8311 52.001C24.5474 51.6784 25.3029 51.54 26.0784 51.5306C27.4079 51.5146 28.704 51.7944 29.9468 52.2411C32.8771 53.2769 35.3906 54.964 37.5593 57.1539C39.9896 59.5993 41.7597 62.4219 42.6131 65.8097C42.6323 65.8648 42.6514 65.92 42.6897 66.0304C42.8561 66.0468 43.0412 66.0815 43.2076 66.098C45.1484 66.2407 47.1052 66.1802 49.0207 65.7508C50.5125 65.4188 51.8909 64.8666 53.1359 63.9651C54.8386 62.7442 55.9082 61.0876 56.3825 59.0689C56.77 57.513 56.7877 55.9246 56.4731 54.3401C56.296 53.4374 56.0085 52.5729 55.7763 51.6892C55.6793 51.3026 55.4372 51.1393 55.0301 51.0703C52.2546 50.6237 49.5502 49.9545 46.8988 49.0816C42.8387 47.7825 38.9037 46.131 35.2751 43.8663C33.5074 42.7612 31.8673 41.5252 30.4635 39.9723C29.7707 39.1866 29.1696 38.3443 28.8434 37.3326C28.325 35.6952 28.9915 34.3021 30.5906 33.6733C31.0315 33.4833 31.5103 33.3668 31.9899 33.324C32.7463 33.2595 33.4849 33.2506 34.2244 33.3155C35.8698 33.4619 37.4818 33.9041 39.0217 34.4949C44.4389 36.5349 49.0757 39.7107 52.8413 44.1529C54.2277 45.7983 55.4131 47.6122 56.323 49.5588C56.4556 49.8342 56.5873 50.0358 56.9571 50.0683C59.9164 50.4388 62.8552 50.6434 65.8247 50.3306C67.5217 50.1623 69.18 49.8468 70.7608 49.2368C71.6801 48.8933 72.561 48.4394 73.3294 47.8392C75.324 46.3192 76.1863 44.3143 75.99 41.8235C75.8391 40.034 75.1365 38.4358 74.195 36.9328C72.9336 34.9351 71.3068 33.2741 69.4607 31.8005C67.5586 30.2722 65.5119 29.0042 63.3379 27.9039C63.2262 27.8314 63.1149 27.7958 62.9668 27.7607C62.8573 27.8728 62.7474 27.948 62.6749 28.0597C61.7294 29.2899 60.5397 30.1723 59.087 30.6885C58.1308 31.0324 57.1373 31.3399 56.142 31.4996C51.8839 32.1605 47.7767 31.5452 43.8403 29.7829C42.9304 29.3692 42.0561 28.8441 41.3459 28.1509C41.1217 27.932 40.8974 27.7131 40.6914 27.4755C39.4727 25.9574 39.785 24.2916 41.3974 23.2379C42.0755 22.805 42.8297 22.5558 43.6034 22.3987C44.819 22.1255 46.0741 22.0734 47.3489 22.1134C50.5449 22.2041 53.6555 22.8683 56.6779 23.8845C58.3652 24.4366 59.999 25.1556 61.6502 25.782C61.8904 25.7976 62.0947 25.8875 62.3176 25.9956ZM20.5979 76.3619C20.4595 75.6064 20.3406 74.943 20.2031 74.2614C19.7519 72.0692 19.2455 69.8961 18.316 67.8574C16.5144 63.9455 13.7993 60.8573 10.0253 58.7791C8.63081 58.0018 7.12869 57.4844 5.52069 57.3745C4.74427 57.31 3.98743 57.3376 3.23371 57.6237C2.16765 58.0429 1.51184 58.7895 1.43355 59.9539C1.40331 60.5083 1.41044 61.0992 1.58309 61.6327C1.81403 62.4055 2.11883 63.1775 2.51528 63.8929C3.6477 65.9107 5.21926 67.5908 6.97324 69.0839C10.7984 72.3435 15.1482 74.6917 19.9313 76.2222C20.1164 76.2569 20.3198 76.2729 20.5979 76.3619ZM54.9575 49.6492C54.8814 49.4654 54.8619 49.3733 54.8054 49.2817C54.0494 47.8503 53.1652 46.5128 52.153 45.2693C49.5665 42.1241 46.4519 39.5947 42.9008 37.6246C40.5025 36.3054 38.0153 35.2643 35.3132 34.7798C34.4433 34.6241 33.5379 34.5796 32.6516 34.5903C32.0976 34.597 31.5454 34.7514 31.0124 34.961C30.2405 35.2658 29.9713 35.9154 30.184 36.7069C30.281 37.0936 30.4514 37.4424 30.6588 37.7908C31.2434 38.7995 32.0474 39.6208 32.9244 40.3674C34.2495 41.5149 35.6836 42.5133 37.2266 43.3626C42.6376 46.4183 48.4418 48.3982 54.5322 49.5989C54.6247 49.6163 54.7542 49.6332 54.9575 49.6492ZM41.3019 65.807C41.2627 65.6228 41.2609 65.4751 41.204 65.3465C40.9748 64.7214 40.8009 64.0771 40.5165 63.4711C38.8844 59.8342 36.2837 57.0401 32.9341 54.9383C31.2967 53.9238 29.5886 53.1688 27.6825 52.8409C26.8126 52.6852 25.9441 52.6403 25.06 52.8357C23.6238 53.1854 23.0262 54.1714 23.4129 55.6072C23.6256 56.3988 24.0773 57.0951 24.5836 57.7353C25.672 59.1627 27.0887 60.2536 28.5961 61.2142C32.3555 63.6066 36.4725 65.0343 40.8396 65.7572C40.9508 65.7928 41.0986 65.791 41.3019 65.807ZM61.7583 27.0919C61.591 27.0016 61.4793 26.9291 61.3863 26.8748C57.6915 25.2389 53.8539 24.0109 49.8401 23.4869C48.1569 23.2671 46.4751 23.1582 44.779 23.4003C44.023 23.5017 43.2497 23.6957 42.5516 23.9996C41.0451 24.6457 40.8738 25.7559 42.0146 26.9425C42.7439 27.6908 43.6182 28.2159 44.5651 28.6292C48.0739 30.1566 51.7188 30.722 55.5177 30.2699C56.9192 30.1052 58.2629 29.7381 59.5105 29.0582C60.3728 28.5861 61.1225 27.9676 61.7583 27.0919Z" fill="#FFFFFC"/>
</svg>
