<svg width="179" height="179" viewBox="0 0 179 179" fill="none" xmlns="http://www.w3.org/2000/svg">
<path fill-rule="evenodd" clip-rule="evenodd" d="M129.017 32.6111L146.977 0.285156L124.809 29.8839C103.321 58.5742 63.9452 66.9846 32.6113 49.5766L0.285377 31.6173L29.8841 53.7853C58.5744 75.2729 66.9848 114.649 49.5768 145.983L31.6176 178.309L53.7855 148.71C75.2731 120.019 114.649 111.609 145.983 129.017L178.309 146.976L148.71 124.808C120.02 103.321 111.609 63.945 129.017 32.6111ZM115.976 47.674L128.797 27.5773L115.691 47.4894C100.864 70.0183 70.6917 76.4628 47.9539 61.9576L27.8572 49.1372L47.7693 62.2425C70.2982 77.0701 76.7427 107.242 62.2375 129.98L49.4171 150.077L62.5224 130.165C77.35 107.636 107.522 101.191 130.26 115.696L150.357 128.517L130.444 115.411C107.916 100.584 101.471 70.4118 115.976 47.674Z" fill="white"/>
</svg>
