<svg width="150" height="150" viewBox="0 0 150 150" fill="none" xmlns="http://www.w3.org/2000/svg">
<path fill-rule="evenodd" clip-rule="evenodd" d="M76.2664 45.8655L75 0L73.7336 45.8655C73.6337 49.4821 72.8662 52.9303 71.5498 56.0915C67.1823 54.9718 63.1757 52.2049 60.5857 47.8027L52.6175 34.2594L60.0476 48.1053C65.1856 57.6798 60.6683 68.8862 51.6796 72.9781C49.8061 73.42 47.8614 73.6785 45.8655 73.7336L0 75L45.8655 76.2664C47.9201 76.3232 49.9203 76.5954 51.8445 77.0613C60.5937 81.4333 64.7442 92.6359 59.431 102.016L51.6862 115.688L59.9621 102.33C62.7634 97.8089 67.0601 95.0955 71.6598 94.1765C72.909 97.2642 73.6365 100.62 73.7336 104.135L75 150L76.2664 104.135C76.3643 100.589 77.104 97.2045 78.3737 94.0942C83.2731 94.9475 87.8676 97.8157 90.7309 102.682L98.699 116.226L91.269 102.38C85.4711 91.5755 91.9678 78.6934 103.311 76.3008C103.584 76.2855 103.859 76.274 104.135 76.2664L121.353 75.791L122.671 75.7802L122.235 75.7666L150 75L104.135 73.7336C102.327 73.6836 100.561 73.4669 98.8516 73.0981C90.5295 68.5163 86.6995 57.6245 91.8855 48.4694L99.6303 34.7971L91.3545 48.1546C88.3431 53.0151 83.6037 55.7863 78.6176 56.485C77.1989 53.2172 76.3705 49.6327 76.2664 45.8655Z" fill="white"/>
</svg>
