<svg width="1240" height="700" viewBox="0 0 1240 700" fill="none" xmlns="http://www.w3.org/2000/svg">
<path d="M-326.624 670.932C-328.756 670.013 -330.888 669.094 -333.02 668.175C-330.64 669.586 -328.274 671.061 -325.889 672.448C-323.348 673.74 -320.834 675.072 -318.275 676.336C-321.06 674.539 -323.849 672.756 -326.624 670.932ZM336.182 226.819C337.134 222.224 338.02 217.436 338.939 212.79C339.321 207.497 339.606 201.951 339.923 196.487C339.174 201.937 338.466 207.515 337.671 212.832C337.17 217.473 336.706 222.229 336.182 226.819ZM332.865 242.396C333.205 240.87 333.573 239.427 333.903 237.888C334.119 236.119 334.289 234.212 334.492 232.406C333.954 235.729 333.416 239.092 332.865 242.396ZM-357.925 654.331C-360.471 653.338 -362.98 652.286 -365.521 651.27C-362.529 652.952 -359.51 654.57 -356.505 656.224C-354.539 657.143 -352.558 658.062 -350.587 658.981C-353.045 657.451 -355.476 655.865 -357.925 654.331ZM-342.95 659.992C-346.167 658.788 -349.383 657.584 -352.572 656.357C-348.643 658.788 -344.692 661.163 -340.744 663.544C-337.951 664.807 -335.143 666.011 -332.331 667.219C-335.888 664.848 -339.407 662.39 -342.95 659.987V659.992ZM332.024 260.491C333.517 255.436 334.905 250.102 336.352 244.919C337.046 236.868 337.828 229.052 338.462 220.841C337.308 226.589 336.192 232.448 334.983 238.04C334.06 245.695 333.017 253.01 332.024 260.486V260.491ZM326.648 277.575C327.783 273.936 328.945 270.407 330.067 266.717C330.898 260.633 331.758 254.628 332.575 248.493C331.799 251.958 330.99 255.326 330.209 258.759C329.079 265.187 327.833 271.294 326.648 277.57V277.575ZM322.83 289.696C323.124 288.777 323.408 287.859 323.698 286.94L324.065 285.102C323.666 286.655 323.229 288.111 322.83 289.692V289.696ZM-404.991 633.088L-406.287 632.601C-405.336 633.033 -404.399 633.474 -403.447 633.901C-403.958 633.626 -404.481 633.364 -404.991 633.088ZM-390.021 638.427C-392.397 637.6 -394.781 636.787 -397.139 635.941C-394.382 637.393 -391.625 638.873 -388.84 640.307C-386.129 641.474 -383.446 642.682 -380.721 643.831C-383.822 642.025 -386.938 640.261 -390.021 638.427ZM-374.858 643.61C-378.028 642.572 -381.171 641.501 -384.319 640.426C-380.574 642.623 -376.82 644.814 -373.052 646.969C-369.777 648.32 -366.493 649.664 -363.2 650.999C-367.078 648.536 -370.989 646.119 -374.848 643.61H-374.858ZM-359.777 648.454C-363.37 647.317 -366.953 646.167 -370.524 645.003C-366.155 647.815 -361.753 650.581 -357.355 653.333C-353.909 654.684 -350.44 655.966 -346.971 657.258C-351.235 654.331 -355.513 651.431 -359.768 648.454H-359.777ZM328.045 289.352C329.956 284.637 331.817 279.762 333.687 274.919C334.478 267.108 335.135 258.947 335.815 250.846C334.276 256.254 332.722 261.635 331.133 266.905C330.14 274.46 329.138 282.046 328.054 289.352H328.045ZM321.111 305.756C322.875 301.579 324.667 297.485 326.414 293.216C327.406 286.724 328.279 279.891 329.171 273.118C327.719 277.846 326.239 282.482 324.759 287.128C323.569 293.386 322.388 299.695 321.12 305.756H321.111ZM314.085 322.371C315.767 318.581 317.375 314.56 319.034 310.668C320.013 306.096 320.904 301.262 321.791 296.488C320.413 300.623 319.062 304.759 317.679 308.844C316.498 313.338 315.353 317.979 314.094 322.371H314.085ZM308.989 333.335C309.757 331.672 310.543 330.082 311.287 328.405C311.926 326.19 312.537 323.888 313.125 321.604C311.788 325.523 310.409 329.466 308.999 333.335H308.989ZM-436.164 619.629C-436.752 619.445 -437.345 619.271 -437.933 619.083C-436.747 619.565 -435.548 620.038 -434.362 620.521L-436.164 619.629ZM-420.964 624.358C-423.789 623.503 -426.579 622.607 -429.391 621.738C-426.105 623.324 -422.792 624.877 -419.484 626.439C-417.122 627.358 -414.728 628.231 -412.353 629.127C-415.247 627.56 -418.092 625.947 -420.964 624.358ZM-406.2 628.599C-409.508 627.68 -412.817 626.733 -416.097 625.768C-412.204 627.913 -408.297 630.034 -404.376 632.132C-401.178 633.309 -397.961 634.463 -394.726 635.597C-398.581 633.295 -402.381 630.942 -406.2 628.599ZM-391.381 632.651C-394.968 631.714 -398.545 630.754 -402.11 629.77C-397.883 632.348 -393.665 634.935 -389.41 637.462C-385.702 638.754 -382.012 640.077 -378.285 641.331C-382.669 638.473 -387.025 635.565 -391.381 632.651ZM-376.562 636.493C-380.39 635.542 -384.172 634.522 -387.976 633.538C-383.418 636.566 -378.874 639.645 -374.283 642.618C-370.46 643.882 -366.614 645.104 -362.768 646.294C-367.382 643.074 -371.98 639.807 -376.562 636.493ZM323.459 317.602C325.756 313.466 328.013 309.271 330.269 305.016C331.298 296.313 332.396 287.79 333.343 278.866C331.413 283.801 329.455 288.653 327.489 293.464C326.211 301.712 324.805 309.584 323.459 317.616V317.602ZM315.188 332.237C317.417 328.331 319.645 324.425 321.851 320.437C323.165 312.782 324.539 305.273 325.789 297.462C323.909 302.002 322.007 306.464 320.1 310.916C318.519 318.222 316.819 325.142 315.188 332.251V332.237ZM306.798 346.78C308.971 343.131 311.112 339.373 313.263 335.637C314.742 329.319 316.236 323.042 317.688 316.641C315.919 320.703 314.145 324.752 312.348 328.731C310.547 334.897 308.64 340.756 306.798 346.794V346.78ZM298.986 359.439C300.824 356.457 302.662 353.525 304.5 350.493C306.003 345.636 307.501 340.747 308.999 335.867C307.666 338.757 306.32 341.597 304.978 344.446C303.034 349.592 300.985 354.426 298.995 359.453L298.986 359.439ZM292.429 370.072C293.509 368.376 294.557 366.593 295.646 364.884C296.229 363.441 296.804 361.966 297.387 360.533C295.76 363.823 294.074 366.865 292.438 370.086L292.429 370.072ZM-467.423 607.738L-470.01 607.067C-468.232 607.696 -466.472 608.349 -464.68 608.969C-465.604 608.565 -466.504 608.146 -467.423 607.738ZM-452.407 611.51C-455.164 610.853 -457.921 610.196 -460.618 609.511C-457.448 610.89 -454.249 612.268 -451.051 613.61C-448.262 614.529 -445.496 615.494 -442.689 616.408C-445.942 614.788 -449.181 613.155 -452.407 611.51ZM-437.464 615.053C-440.975 614.253 -444.444 613.412 -447.927 612.581C-443.874 614.635 -439.757 616.629 -435.663 618.641C-432.345 619.689 -429.009 620.714 -425.673 621.743C-429.619 619.531 -433.549 617.301 -437.464 615.053ZM-422.797 618.269C-426.513 617.476 -430.219 616.669 -433.917 615.848C-429.441 618.402 -424.92 620.902 -420.403 623.402C-416.869 624.454 -413.294 625.46 -409.72 626.471C-414.097 623.748 -418.456 621.008 -422.797 618.251V618.269ZM-408.226 621.215C-412.04 620.479 -415.854 619.749 -419.622 618.963C-414.984 621.885 -410.318 624.779 -405.625 627.643C-401.83 628.704 -398.03 629.77 -394.207 630.795C-398.903 627.622 -403.576 624.422 -408.226 621.196V621.215ZM-393.683 623.972C-397.626 623.258 -401.548 622.521 -405.451 621.761C-400.589 625.097 -395.705 628.406 -390.798 631.687C-386.887 632.716 -382.986 633.754 -379.044 634.747C-383.951 631.176 -388.812 627.56 -393.683 623.949V623.972ZM318.915 344.138C321.566 340.595 324.226 337.094 326.859 333.468C327.971 325.285 328.909 316.628 329.901 308.109C327.604 312.423 325.246 316.577 322.917 320.791C321.607 328.63 320.33 336.565 318.915 344.119V344.138ZM309.564 356.416C312.207 352.994 314.843 349.534 317.472 346.035C318.85 338.817 320.049 331.152 321.313 323.63C318.988 327.803 316.655 331.938 314.315 336.037C312.753 342.86 311.218 349.803 309.564 356.397V356.416ZM300.158 368.404C302.749 365.163 305.333 361.89 307.91 358.584C309.477 352.409 310.915 345.861 312.39 339.419C310.12 343.32 307.822 347.124 305.529 350.943C303.76 356.801 302.028 362.743 300.158 368.385V368.404ZM290.917 379.657C293.353 376.711 295.793 373.775 298.214 370.775C299.942 365.56 301.582 360.082 303.241 354.651C301.048 358.257 298.847 361.828 296.638 365.367C294.745 370.159 292.87 375.016 290.917 379.638V379.657ZM281.792 390.685C284.002 388.107 286.18 385.41 288.376 382.777C290.035 378.89 291.662 374.874 293.279 370.83C291.317 373.913 289.337 376.914 287.356 379.933C285.509 383.498 283.68 387.165 281.81 390.643L281.792 390.685ZM274.867 398.496C276.043 397.155 277.224 395.863 278.396 394.512C279.605 392.311 280.822 390.133 282.012 387.877C279.632 391.392 277.27 394.995 274.867 398.464V398.496ZM-497.759 597.941C-499.028 597.702 -500.264 597.445 -501.527 597.201C-498.991 597.946 -496.441 598.684 -493.877 599.416C-495.168 598.924 -496.477 598.437 -497.759 597.941ZM-483.225 600.569C-486.088 600.059 -488.96 599.554 -491.795 599.025C-488.579 600.257 -485.362 601.507 -482.1 602.701C-479.168 603.507 -476.221 604.297 -473.259 605.073C-476.59 603.602 -479.931 602.104 -483.225 600.569ZM-468.673 603.037C-472.064 602.495 -475.455 601.948 -478.782 601.369C-474.858 603.161 -470.934 604.962 -466.968 606.722C-463.449 607.641 -459.933 608.56 -456.377 609.424C-460.494 607.319 -464.616 605.206 -468.673 603.051V603.037ZM-454.148 605.334C-457.852 604.783 -461.5 604.199 -465.176 603.616C-460.79 605.929 -456.377 608.226 -451.938 610.508C-448.175 611.427 -444.416 612.346 -440.621 613.219C-445.115 610.6 -449.682 608.004 -454.148 605.344V605.334ZM-439.647 607.462C-443.52 606.924 -447.362 606.359 -451.194 605.794C-446.489 608.583 -441.733 611.308 -436.972 614.065C-433.154 614.929 -429.294 615.756 -425.434 616.578C-430.186 613.536 -434.946 610.522 -439.647 607.462ZM-425.324 609.3C-429.253 608.84 -433.182 608.344 -437.06 607.82C-432.166 611.009 -427.208 614.143 -422.264 617.277C-418.349 618.104 -414.411 618.894 -410.455 619.675C-415.427 616.192 -420.398 612.774 -425.324 609.3ZM-411.038 610.968C-415.041 610.508 -419.034 610.076 -422.985 609.589C-417.931 613.169 -412.794 616.689 -407.675 620.213C-403.668 620.994 -399.661 621.784 -395.618 622.51C-400.776 618.678 -405.916 614.823 -411.038 610.945V610.968ZM313.589 370.274C316.585 367.393 319.604 364.617 322.591 361.672C323.928 353.038 325.348 344.625 326.593 335.729C323.923 339.405 321.212 342.87 318.524 346.454C316.953 354.591 315.234 362.32 313.584 370.251L313.589 370.274ZM303.149 380.204C306.164 377.387 309.169 374.506 312.169 371.625C313.791 363.91 315.468 356.356 317.017 348.429C314.333 351.991 311.65 355.542 308.943 358.998C307.083 366.249 305.075 373.118 303.145 380.181L303.149 380.204ZM292.7 389.766C295.669 387.082 298.637 384.431 301.592 381.683C303.43 374.942 305.341 368.28 307.151 361.383C304.519 364.742 301.863 367.986 299.211 371.276C297.084 377.552 294.869 383.581 292.696 389.743L292.7 389.766ZM282.27 399.066C285.186 396.499 288.096 393.895 291 391.255C293.063 385.442 295.136 379.666 297.167 373.734C294.569 376.935 291.965 380.107 289.355 383.25C287.007 388.622 284.613 393.796 282.27 399.066ZM271.885 408.104C274.679 405.718 277.468 403.306 280.252 400.867C282.412 396.112 284.567 391.346 286.685 386.513C284.245 389.412 281.787 392.233 279.333 395.073C276.848 399.47 274.348 403.762 271.862 408.104H271.885ZM262.043 416.329C264.515 414.271 266.991 412.226 269.454 410.135C271.568 406.487 273.671 402.811 275.763 399.107C273.662 401.512 271.556 403.892 269.445 406.248C266.968 409.662 264.483 412.966 262.02 416.311L262.043 416.329ZM253.634 423.355C255.274 422.027 256.896 420.598 258.532 419.261C259.621 417.795 260.705 416.293 261.794 414.822C259.07 417.754 256.326 420.492 253.611 423.355H253.634ZM-513.414 591.738C-516.484 591.43 -519.494 591.099 -522.526 590.777C-519.095 591.862 -515.638 592.934 -512.155 593.994C-509.302 594.573 -506.402 595.134 -503.526 595.694C-506.848 594.398 -510.124 593.066 -513.414 591.738ZM-499.17 593.057C-502.671 592.744 -506.168 592.423 -509.628 592.092C-505.575 593.709 -501.513 595.308 -497.401 596.916C-494.019 597.56 -490.577 598.175 -487.136 598.787C-491.166 596.893 -495.154 594.977 -499.152 593.057H-499.17ZM-484.926 594.233C-488.634 593.948 -492.346 593.668 -495.99 593.351C-491.625 595.432 -487.26 597.518 -482.826 599.563C-479.113 600.219 -475.377 600.859 -471.618 601.484C-476.085 599.094 -480.496 596.664 -484.916 594.233H-484.926ZM-470.722 595.276C-474.582 595.013 -478.411 594.737 -482.21 594.449C-477.569 596.99 -472.933 599.536 -468.232 602.031C-464.335 602.669 -460.421 603.313 -456.496 603.915C-461.275 601.061 -465.999 598.171 -470.713 595.276H-470.722ZM-456.552 596.195C-460.508 595.961 -464.414 595.699 -468.324 595.441C-463.467 598.419 -458.619 601.415 -453.698 604.333C-449.742 604.925 -445.749 605.5 -441.751 606.06C-446.705 602.792 -451.635 599.5 -456.542 596.186L-456.552 596.195ZM-442.491 596.921C-446.47 596.728 -450.436 596.526 -454.36 596.305C-449.305 599.696 -444.274 603.092 -439.169 606.414C-435.203 606.961 -431.183 607.453 -427.162 607.949C-432.293 604.297 -437.4 600.612 -442.482 596.893L-442.491 596.921ZM-428.499 597.5C-432.492 597.357 -436.481 597.206 -440.419 597.04C-435.249 600.804 -430.062 604.567 -424.832 608.275C-420.798 608.771 -416.747 609.249 -412.679 609.709C-417.969 605.65 -423.24 601.577 -428.49 597.491L-428.499 597.5ZM308.401 395.022C311.737 392.817 315.073 390.689 318.405 388.442C319.811 380.41 321.019 371.832 322.301 363.46C319.273 366.423 316.222 369.217 313.185 372.126C311.618 379.795 310.101 387.648 308.41 395.013L308.401 395.022ZM297.006 402.517C300.346 400.362 303.682 398.138 307.018 395.932C308.691 388.704 310.198 381.012 311.765 373.477C308.709 376.404 305.653 379.354 302.575 382.207C300.751 389.017 298.954 395.969 297.015 402.526L297.006 402.517ZM285.624 409.717C288.919 407.64 292.218 405.618 295.512 403.5C297.424 397.109 299.188 390.345 301.026 383.691C298.007 386.48 294.97 389.136 291.942 391.87C289.861 397.858 287.784 403.951 285.633 409.708L285.624 409.717ZM274.205 416.835C277.477 414.827 280.744 412.773 284.016 410.719C286.148 405.113 288.179 399.231 290.233 393.391C287.209 396.111 284.186 398.841 281.148 401.497C278.86 406.662 276.576 411.872 274.215 416.826L274.205 416.835ZM262.856 423.727C266.036 421.825 269.215 419.927 272.39 417.979C274.688 413.219 276.903 408.256 279.131 403.312C276.195 405.867 273.245 408.334 270.3 410.838C267.841 415.153 265.383 419.527 262.865 423.704L262.856 423.727ZM251.713 430.312C254.734 428.541 257.752 426.758 260.77 424.963C263.164 421.025 265.521 416.95 267.874 412.865C265.029 415.263 262.18 417.657 259.327 420.005C256.809 423.461 254.286 426.953 251.722 430.289L251.713 430.312ZM241.002 436.529C243.686 434.994 246.369 433.413 249.053 431.851C251.323 428.92 253.58 425.937 255.826 422.905C253.285 424.977 250.734 426.985 248.184 429.021C245.795 431.557 243.41 434.117 241.002 436.529ZM232.538 441.257C234.124 440.37 235.709 439.497 237.294 438.601C238.93 436.97 240.579 435.385 242.211 433.694C238.99 436.235 235.769 438.826 232.538 441.271V441.257ZM-501.399 585.002C-505.254 585.057 -509.104 585.103 -512.886 585.13C-508.227 587.443 -503.529 589.741 -498.793 592.023C-494.975 592.363 -491.11 592.68 -487.228 592.988C-491.983 590.336 -496.702 587.671 -501.399 585.002ZM-487.508 584.772C-491.441 584.85 -495.352 584.923 -499.216 584.979C-494.354 587.736 -489.453 590.471 -484.512 593.185C-480.592 593.493 -476.659 593.787 -472.685 594.068C-477.684 590.993 -482.6 587.883 -487.508 584.772ZM-473.64 584.459C-477.633 584.565 -481.571 584.652 -485.504 584.731C-480.468 587.916 -475.402 591.081 -470.304 594.224C-466.316 594.495 -462.337 594.771 -458.302 595.009C-463.458 591.522 -468.549 587.993 -473.64 584.459ZM-459.805 584.064C-463.825 584.193 -467.791 584.299 -471.752 584.409C-466.562 587.999 -461.344 591.572 -456.097 595.129C-452.131 595.359 -448.111 595.556 -444.085 595.749C-449.374 591.885 -454.59 587.975 -459.819 584.064H-459.805ZM-446.02 583.554C-450.04 583.72 -454.047 583.871 -457.999 584.014C-452.696 587.978 -447.365 591.929 -442.004 595.869C-438.015 596.053 -433.986 596.213 -429.942 596.365C-435.36 592.124 -440.694 587.837 -446.034 583.568L-446.02 583.554ZM302.35 419.279C306.026 417.758 309.679 416.26 313.345 414.717C314.963 406.501 316.626 398.414 318.143 389.904C314.779 392.164 311.411 394.324 308.034 396.548C306.209 404.364 304.243 411.716 302.336 419.279H302.35ZM290.054 424.384C293.729 422.896 297.383 421.342 301.049 419.822C302.933 412.419 304.849 405.118 306.651 397.476C303.269 399.709 299.891 401.97 296.505 404.148C294.4 411.068 292.199 417.689 290.04 424.384H290.054ZM277.785 429.292C281.42 427.835 285.05 426.42 288.693 424.94C290.816 418.383 292.958 411.891 295.012 405.131C291.662 407.277 288.312 409.304 284.962 411.408C282.6 417.51 280.17 423.355 277.771 429.292H277.785ZM265.48 434.195C269.096 432.77 272.726 431.309 276.347 429.862C278.699 424.086 281.061 418.374 283.354 412.401C280 414.501 276.65 416.619 273.291 418.677C270.709 423.962 268.076 429.044 265.466 434.195H265.48ZM253.239 438.937C256.8 437.558 260.356 436.212 263.922 434.801C266.454 429.839 268.976 424.899 271.476 419.803C268.191 421.807 264.901 423.736 261.611 425.699C258.835 430.202 256.019 434.544 253.225 438.937H253.239ZM241.057 443.596C244.54 442.276 248.026 440.943 251.516 439.598C254.19 435.412 256.873 431.231 259.52 426.948C256.303 428.874 253.055 430.794 249.82 432.678C246.888 436.363 243.966 439.966 241.044 443.596H241.057ZM229.069 448.099C232.387 446.874 235.706 445.631 239.026 444.372C241.744 441.027 244.45 437.658 247.146 434.263C244.09 436.033 241.034 437.751 237.983 439.488C235.001 442.369 232.028 445.232 229.055 448.099H229.069ZM217.692 452.276C220.642 451.196 223.587 450.121 226.542 449.027C229.124 446.555 231.7 444.063 234.271 441.551C231.575 443.083 228.878 444.59 226.179 446.073C223.339 448.163 220.509 450.208 217.678 452.276H217.692ZM208.461 455.662C210.299 454.996 212.16 454.284 214.002 453.627C215.473 452.565 216.934 451.476 218.4 450.41C215.073 452.211 211.76 453.898 208.447 455.662H208.461ZM-504.505 573.84C-508.452 574.3 -512.39 574.732 -516.259 575.159C-511.247 578.1 -506.193 581.019 -501.095 583.917C-497.159 583.862 -493.187 583.798 -489.18 583.724C-494.324 580.45 -499.432 577.155 -504.505 573.84ZM-490.936 572.292L-502.791 573.67C-497.626 577.04 -492.418 580.385 -487.168 583.706C-483.184 583.628 -479.196 583.55 -475.147 583.444C-480.447 579.734 -485.71 576.017 -490.936 572.292ZM-477.371 570.725L-489.318 572.104C-484.016 575.881 -478.669 579.636 -473.277 583.37C-469.28 583.265 -465.268 583.15 -461.215 583.026C-466.634 578.942 -472.02 574.842 -477.371 570.725ZM-463.825 569.131L-475.772 570.541C-470.344 574.704 -464.878 578.84 -459.373 582.948C-455.394 582.819 -451.355 582.663 -447.306 582.488C-452.86 578.071 -458.367 573.618 -463.825 569.131ZM296.376 442.502L308.263 439.993C309.959 432.246 311.507 424.072 313.088 415.998C309.412 417.547 305.704 419.059 302.01 420.593C300.158 427.964 298.352 435.426 296.376 442.502ZM283.244 445.259C287.177 444.437 291.143 443.596 295.099 442.764C297.047 435.775 298.862 428.41 300.709 421.127C297.01 422.661 293.302 424.228 289.612 425.721C287.508 432.306 285.431 438.955 283.244 445.259ZM270.125 447.98C274.058 447.162 277.978 446.357 281.92 445.53C284.098 439.304 286.166 432.756 288.257 426.273C284.581 427.771 280.905 429.204 277.229 430.675C274.867 436.501 272.542 442.392 270.125 447.984V447.98ZM257.02 450.7C260.917 449.896 264.832 449.073 268.751 448.264C271.145 442.75 273.456 436.979 275.777 431.263C272.101 432.733 268.425 434.227 264.749 435.665C262.176 440.719 259.635 445.834 257.02 450.704V450.7ZM243.966 453.365C247.835 452.575 251.681 451.798 255.564 450.998C258.141 446.224 260.655 441.234 263.173 436.294C259.529 437.719 255.895 439.084 252.255 440.485C249.503 444.8 246.764 449.193 243.966 453.369V453.365ZM230.967 456.016L242.381 453.691C245.138 449.606 247.826 445.36 250.532 441.124C246.916 442.502 243.304 443.881 239.702 445.259C236.779 448.889 233.903 452.538 230.967 456.021V456.016ZM218.101 458.612L229.184 456.379C232.033 453.016 234.849 449.528 237.671 446.04C234.151 447.368 230.645 448.655 227.135 449.955C224.129 452.878 221.129 455.828 218.101 458.617V458.612ZM205.511 461.135L215.987 459.035C218.873 456.375 221.74 453.636 224.607 450.884C221.238 452.124 217.868 453.359 214.498 454.587C211.507 456.797 208.516 459.017 205.534 461.14L205.511 461.135ZM193.536 463.524C196.61 462.918 199.703 462.293 202.781 461.686C205.465 459.802 208.145 457.888 210.822 455.943C207.808 457.032 204.803 458.098 201.798 459.159C199.045 460.634 196.289 462.114 193.536 463.529V463.524ZM184.112 465.362L189.566 464.287C191.331 463.368 193.095 462.504 194.859 461.585C191.289 462.872 187.687 464.149 184.112 465.385V465.362ZM-508.415 559.674C-512.376 560.501 -516.314 561.328 -520.192 562.151C-514.926 565.689 -509.573 569.204 -504.206 572.719L-492.259 571.341C-497.672 567.486 -503.08 563.584 -508.415 559.674ZM-495.131 556.917C-499.113 557.735 -503.059 558.551 -506.968 559.366C-501.573 563.318 -496.096 567.242 -490.605 571.162C-486.621 570.702 -482.646 570.243 -478.598 569.783C-484.144 565.505 -489.686 561.227 -495.131 556.917ZM-481.833 554.206C-485.845 555.015 -489.778 555.824 -493.716 556.632C-488.202 560.965 -482.619 565.285 -477.018 569.59L-464.983 568.175C-470.631 563.534 -476.273 558.884 -481.833 554.211V554.206ZM289.695 464.976L302.46 464.517C304.335 456.829 306.214 449.147 307.974 441.165L296.027 443.688C293.982 450.971 291.827 457.946 289.695 464.981V464.976ZM275.763 465.514C279.981 465.339 284.236 465.183 288.477 465.018C290.596 458.079 292.719 451.145 294.745 443.945C290.761 444.786 286.764 445.631 282.798 446.459C280.51 452.983 278.134 459.219 275.763 465.519V465.514ZM261.85 466.107C266.072 465.927 270.281 465.739 274.523 465.564C276.866 459.361 279.209 453.158 281.479 446.725C277.495 447.557 273.539 448.37 269.569 449.193C267.037 454.982 264.437 460.524 261.85 466.111V466.107ZM247.991 466.699C252.159 466.511 256.386 466.346 260.577 466.162C263.132 460.648 265.696 455.175 268.191 449.487C264.234 450.309 260.255 451.141 256.313 451.95C253.574 456.99 250.776 461.824 247.991 466.704V466.699ZM234.16 467.37C238.333 467.168 242.473 466.957 246.668 466.764C249.425 461.971 252.154 457.197 254.851 452.253C250.904 453.066 246.994 453.857 243.061 454.656C240.12 458.994 237.133 463.18 234.16 467.375V467.37ZM220.412 468.041C224.506 467.834 228.637 467.641 232.75 467.439C235.667 463.304 238.59 459.219 241.48 454.982C237.58 455.779 233.682 456.572 229.786 457.362C226.67 460.997 223.541 464.503 220.412 468.046V468.041ZM206.751 468.758C210.79 468.542 214.82 468.299 218.882 468.115C221.928 464.678 224.975 461.254 227.998 457.73L216.511 460.028C213.262 462.996 210.005 465.868 206.751 468.763V468.758ZM193.26 469.493C197.163 469.273 201.078 469.06 205.005 468.854C208.139 466.097 211.273 463.299 214.393 460.459C210.662 461.213 206.935 461.961 203.213 462.702C199.9 465.018 196.578 467.237 193.26 469.498V469.493ZM180.096 470.233C183.772 470.017 187.448 469.81 191.165 469.603C194.271 467.499 197.382 465.39 200.484 463.249L189.915 465.344C186.639 466.989 183.367 468.606 180.096 470.238V470.233ZM167.639 470.982C170.855 470.789 174.072 470.587 177.33 470.398C180.188 468.983 183.043 467.562 185.895 466.134L176.631 467.972C173.631 468.983 170.635 469.976 167.639 470.991V470.982ZM158.233 471.547C159.979 471.437 161.748 471.34 163.503 471.23L168.443 469.567C165.024 470.242 161.638 470.89 158.233 471.552V471.547ZM-513.038 542.645C-516.98 543.821 -520.895 545.002 -524.75 546.188C-519.273 550.305 -513.733 554.413 -508.13 558.512C-504.197 557.689 -500.241 556.867 -496.234 556.044C-501.876 551.587 -507.501 547.121 -513.038 542.645ZM-499.979 538.808C-503.943 539.951 -507.864 541.101 -511.742 542.259C-506.16 546.768 -500.519 551.267 -494.819 555.755C-490.862 554.946 -486.911 554.133 -482.872 553.324C-488.621 548.496 -494.324 543.658 -499.979 538.808ZM282.936 486.614C287.421 487.106 291.956 487.639 296.473 488.149C298.453 480.824 300.333 473.224 302.198 465.583C297.909 465.733 293.633 465.886 289.369 466.042C287.26 473.031 285.141 479.97 282.936 486.614ZM268.232 485.038C272.703 485.497 277.211 485.994 281.714 486.481C283.915 479.873 286.028 472.999 288.147 466.102C283.873 466.263 279.591 466.424 275.345 466.598C273.015 472.829 270.677 479.078 268.255 485.056L268.232 485.038ZM253.588 483.572C258.054 484.007 262.531 484.454 267.019 484.914C269.427 478.996 271.761 472.825 274.091 466.654C269.817 466.828 265.576 467.016 261.321 467.2C258.789 472.746 256.235 478.283 253.611 483.591L253.588 483.572ZM239.04 482.129C243.442 482.534 247.922 483.012 252.366 483.448C254.971 478.191 257.517 472.723 260.053 467.255C255.826 467.439 251.552 467.605 247.348 467.798C244.614 472.65 241.866 477.502 239.077 482.148L239.04 482.129ZM224.497 480.857C228.922 481.247 233.315 481.606 237.767 482.014C240.552 477.419 243.281 472.641 246.038 467.862C241.793 468.06 237.597 468.276 233.375 468.478C230.434 472.668 227.502 476.868 224.52 480.875L224.497 480.857ZM210.087 479.598C214.416 479.951 218.818 480.36 223.169 480.742C226.124 476.781 229.032 472.664 231.941 468.547C227.759 468.749 223.555 468.946 219.397 469.158C216.327 472.691 213.239 476.234 210.129 479.616L210.087 479.598ZM195.723 478.486C200.038 478.812 204.33 479.12 208.672 479.473C211.755 476.147 214.811 472.687 217.862 469.231C213.694 469.447 209.591 469.691 205.432 469.898C202.23 472.829 199 475.724 195.746 478.504L195.723 478.486ZM181.52 477.429C185.711 477.723 189.929 478.044 194.143 478.348C197.359 475.628 200.516 472.797 203.691 469.971C199.624 470.192 195.553 470.431 191.51 470.637C188.206 472.949 184.879 475.255 181.543 477.447L181.52 477.429ZM167.524 476.464C171.574 476.724 175.636 477 179.71 477.291C182.949 475.168 186.184 472.967 189.414 470.766L177.596 471.451C174.26 473.155 170.901 474.86 167.547 476.505L167.524 476.464ZM153.794 475.618C157.613 475.848 161.431 476.078 165.282 476.321C168.466 474.791 171.655 473.201 174.844 471.616L163.701 472.287C160.416 473.426 157.107 474.552 153.817 475.637L153.794 475.618ZM141.117 474.837C144.333 475.016 147.623 475.246 150.853 475.439C153.748 474.49 156.649 473.521 159.556 472.535L149.907 473.137L141.117 474.837ZM131.348 474.378C133.085 474.465 134.799 474.534 136.54 474.626L141.236 473.707C137.96 473.946 134.656 474.157 131.371 474.382L131.348 474.378ZM275.63 507.461C280.363 508.578 285.178 509.791 289.948 510.954C292.071 503.856 294.142 496.605 296.16 489.201C291.625 488.686 287.067 488.153 282.559 487.662C280.312 494.426 277.987 500.992 275.639 507.48L275.63 507.461ZM260.214 503.891C264.95 504.976 269.698 506.078 274.458 507.2C276.797 500.767 279.095 494.242 281.351 487.547C276.82 487.055 272.289 486.564 267.791 486.099C265.328 492.169 262.782 498.051 260.214 503.891ZM244.867 500.427C249.578 501.468 254.308 502.54 259.056 503.643C261.597 497.863 264.11 492.004 266.582 485.989C262.061 485.523 257.555 485.072 253.064 484.634C250.385 490.014 247.633 495.225 244.88 500.427H244.867ZM229.63 497.049C234.284 498.046 239.013 499.122 243.709 500.165C246.438 495.023 249.158 489.835 251.833 484.496C247.357 484.036 242.84 483.577 238.397 483.177C235.52 487.91 232.58 492.477 229.643 497.049H229.63ZM214.416 493.892C219.084 494.857 223.734 495.795 228.44 496.801C231.353 492.28 234.261 487.744 237.124 483.062C232.63 482.649 228.187 482.281 223.72 481.895C220.656 485.985 217.54 489.927 214.429 493.892H214.416ZM199.372 490.773C203.935 491.692 208.594 492.689 213.189 493.635C216.267 489.725 219.346 485.824 222.379 481.776C217.963 481.394 213.51 480.976 209.127 480.618C205.91 484.078 202.648 487.409 199.385 490.773H199.372ZM184.337 487.891C188.932 488.769 193.467 489.587 198.094 490.506C201.311 487.198 204.527 483.903 207.744 480.494C203.314 480.135 198.949 479.832 194.547 479.496C191.151 482.355 187.746 485.107 184.351 487.891H184.337ZM169.504 485.089C173.948 485.902 178.451 486.775 182.935 487.625C186.276 484.896 189.617 482.18 192.948 479.382C188.629 479.055 184.291 478.72 180.004 478.417C176.521 480.677 173.015 482.869 169.518 485.089H169.504ZM154.8 482.451C159.156 483.214 163.532 483.993 167.928 484.79C171.342 482.635 174.766 480.484 178.175 478.283C173.925 477.985 169.702 477.709 165.479 477.438C161.946 479.133 158.385 480.778 154.828 482.451H154.8ZM140.317 479.983C144.508 480.682 148.712 481.397 152.93 482.129C156.363 480.526 159.795 478.913 163.228 477.3C159.138 477.037 155.061 476.785 150.996 476.546C147.458 477.704 143.906 478.835 140.345 479.983H140.317ZM126.468 477.649C130.277 478.256 134.169 478.95 138.006 479.588C141.346 478.513 144.682 477.447 148.027 476.372C144.223 476.156 140.409 475.912 136.632 475.729L126.468 477.649ZM113.184 475.632C116.538 476.147 119.86 476.625 123.233 477.158L131.996 475.494C128.641 475.32 125.301 475.163 121.965 475.007C119.047 475.209 116.143 475.425 113.211 475.632H113.184ZM103.626 474.185C105.184 474.414 106.76 474.644 108.322 474.897L112.917 474.566C109.833 474.434 106.745 474.315 103.654 474.208L103.626 474.185ZM268.048 527.551C272.983 529.274 278.024 531.135 283.014 532.927C285.27 526.099 287.485 519.142 289.631 512.015C284.843 510.848 280.004 509.63 275.253 508.509C272.919 514.994 270.526 521.341 268.076 527.551H268.048ZM251.966 522.064C256.947 523.76 261.891 525.396 266.909 527.119C269.359 520.952 271.756 514.646 274.1 508.201C269.298 507.071 264.528 505.973 259.759 504.884C257.232 510.738 254.64 516.481 251.998 522.064H251.966ZM236.012 516.688C240.919 518.315 245.877 520.001 250.835 521.683C253.464 516.132 256.051 510.439 258.606 504.645C253.836 503.554 249.079 502.482 244.334 501.428C241.618 506.598 238.856 511.721 236.044 516.688H236.012ZM220.155 511.477C225.03 513.049 229.956 514.694 234.859 516.307C237.657 511.376 240.414 506.299 243.13 501.143C238.397 500.096 233.636 499.016 228.945 498.014C226.096 502.582 223.164 507.108 220.187 511.477H220.155ZM204.348 506.506C209.223 508.031 214.085 509.534 219.001 511.101C221.965 506.763 224.888 502.283 227.801 497.775C223.059 496.764 218.367 495.813 213.658 494.839C210.588 498.786 207.509 502.724 204.38 506.506H204.348ZM188.725 501.603C193.476 503.041 198.375 504.64 203.153 506.138C206.264 502.384 209.338 498.497 212.412 494.591C207.767 493.635 203.052 492.606 198.444 491.692C195.268 495.037 192.043 498.391 188.78 501.603H188.725ZM173.102 497.008C177.918 498.423 182.66 499.765 187.521 501.217C190.738 498.033 193.954 494.724 197.171 491.411C192.475 490.492 187.875 489.661 183.216 488.774C179.894 491.563 176.526 494.361 173.139 497.022L173.102 497.008ZM157.7 492.519C162.359 493.842 167.087 495.253 171.788 496.627C175.147 493.994 178.483 491.246 181.824 488.512C177.261 487.643 172.67 486.747 168.14 485.92C164.703 488.153 161.224 490.4 157.746 492.532L157.7 492.519ZM142.389 488.254C146.984 489.518 151.612 490.782 156.271 492.1C159.713 490.001 163.163 487.804 166.582 485.626C162.051 484.804 157.562 484.027 153.073 483.241C149.544 484.937 145.983 486.646 142.426 488.268L142.389 488.254ZM127.226 484.179C131.711 485.369 136.209 486.568 140.735 487.809C144.223 486.223 147.72 484.565 151.212 482.924C146.822 482.161 142.448 481.416 138.089 480.687C134.491 481.872 130.865 483.058 127.254 484.193L127.226 484.179ZM112.522 480.287C116.74 481.362 121.041 482.538 125.296 483.659C128.784 482.561 132.285 481.422 135.786 480.291C131.605 479.602 127.414 478.913 123.27 478.242L112.522 480.287ZM97.9423 476.712C101.958 477.695 105.938 478.637 109.986 479.662L120.035 477.755C116.102 477.135 112.196 476.556 108.29 475.972C104.853 476.229 101.393 476.473 97.9607 476.726L97.9423 476.712ZM84.8604 473.495C88.0493 474.249 91.2934 475.081 94.5098 475.862C97.4598 475.641 100.442 475.434 103.419 475.223C100.364 474.764 97.2438 474.258 94.2296 473.845C91.1188 473.748 87.9804 473.615 84.8788 473.518L84.8604 473.495ZM75.9875 471.405C77.2373 471.694 78.4504 471.938 79.7048 472.232C80.8306 472.264 81.9748 472.315 83.1052 472.351C80.7372 472.057 78.3708 471.757 76.0059 471.451L75.9875 471.405ZM260.149 546.827C265.305 549.124 270.585 551.633 275.809 554.045C278.171 547.557 280.404 540.72 282.674 533.928C277.666 532.127 272.602 530.253 267.644 528.529C265.204 534.769 262.723 540.917 260.168 546.85L260.149 546.827ZM243.405 539.521C248.63 541.818 253.776 543.982 259.028 546.339C261.574 540.444 264.037 534.305 266.491 528.125C261.436 526.37 256.483 524.725 251.479 523.02C248.855 528.658 246.162 534.172 243.424 539.544L243.405 539.521ZM226.827 532.293C231.945 534.484 237.138 536.777 242.312 539.043C245.041 533.713 247.715 528.212 250.367 522.639C245.386 520.952 240.4 519.252 235.461 517.616C232.63 522.631 229.758 527.531 226.845 532.316L226.827 532.293ZM210.335 525.327C215.454 527.463 220.578 529.614 225.747 531.824C228.636 527.064 231.497 522.201 234.33 517.235C229.377 515.599 224.419 513.963 219.512 512.383C216.497 516.817 213.432 521.104 210.354 525.35L210.335 525.327ZM193.945 518.6C199.032 520.672 204.109 522.735 209.246 524.876C212.302 520.667 215.344 516.399 218.358 512.01C213.405 510.421 208.507 508.904 203.595 507.37C200.415 511.229 197.189 514.928 193.963 518.623L193.945 518.6ZM177.766 511.992C182.733 513.963 187.825 516.128 192.838 518.145C196.054 514.469 199.248 510.793 202.418 507.007C197.58 505.499 192.659 503.882 187.861 502.412C184.53 505.715 181.18 508.858 177.785 512.015L177.766 511.992ZM161.555 505.766C166.61 507.705 171.535 509.543 176.617 511.551C179.958 508.422 183.308 505.302 186.625 502.072C181.713 500.587 176.911 499.241 172.045 497.817C168.576 500.546 165.07 503.156 161.573 505.789L161.555 505.766ZM145.629 499.65C150.49 501.488 155.439 503.413 160.333 505.302C163.797 502.701 167.262 500.114 170.713 497.435C165.948 496.057 161.146 494.6 156.423 493.263C152.861 495.459 149.254 497.55 145.647 499.673L145.629 499.65ZM129.762 493.824C134.61 495.588 139.412 497.32 144.333 499.154C147.894 497.058 151.455 494.991 155.012 492.845C150.247 491.503 145.546 490.235 140.827 488.944C137.156 490.621 133.471 492.22 129.781 493.847L129.762 493.824ZM114.094 488.227C118.799 489.887 123.529 491.572 128.283 493.281C131.908 491.682 135.534 490.106 139.159 488.48C134.527 487.218 129.914 485.978 125.319 484.762C121.583 485.966 117.857 487.097 114.094 488.25V488.227ZM98.8015 482.846C103.286 484.376 107.858 486.021 112.389 487.616C116.065 486.495 119.69 485.383 123.352 484.248C118.877 483.071 114.392 481.886 109.958 480.765L98.8015 482.846ZM83.5003 477.792C87.8885 479.239 92.2307 480.631 96.6649 482.139L107.403 480.135C103.043 479.037 98.7372 478.003 94.4225 476.951C90.7787 477.25 87.1625 477.534 83.5187 477.815L83.5003 477.792ZM69.1272 473.045C72.987 474.277 76.9387 475.632 80.8398 476.914L91.0452 476.124C87.2268 475.205 83.3303 474.189 79.5578 473.307C76.0656 473.224 72.6194 473.155 69.1456 473.068L69.1272 473.045ZM55.448 468.79C58.8528 469.842 62.1842 470.798 65.6166 471.887L73.9795 472.071C70.4459 471.262 66.9722 470.522 63.4616 469.741C60.7919 469.424 58.1406 469.153 55.4664 468.813L55.448 468.79ZM45.2977 465.721L49.6859 467.049L52.985 467.421C50.4532 466.897 47.8433 466.272 45.316 465.744L45.2977 465.721ZM251.736 565.358C257.089 568.23 262.53 571.24 267.961 574.226C270.488 567.927 273.015 561.678 275.46 555.079C270.212 552.653 264.891 550.149 259.74 547.833C257.149 553.875 254.452 559.628 251.754 565.381L251.736 565.358ZM234.482 556.315C239.89 559.159 245.216 561.889 250.675 564.811C253.363 559.086 256.06 553.361 258.665 547.35C253.367 544.984 248.203 542.801 242.955 540.499C240.166 545.931 237.326 551.141 234.482 556.315ZM217.402 547.355C222.682 550.071 228.067 552.942 233.407 555.75C236.251 550.604 239.091 545.425 241.862 540.044C236.665 537.747 231.445 535.449 226.298 533.258C223.357 538.078 220.385 542.746 217.393 547.355H217.402ZM200.401 538.744C205.717 541.418 210.969 544.037 216.369 546.799C219.351 542.204 222.314 537.572 225.241 532.789C220.04 530.565 214.889 528.405 209.743 526.26C206.63 530.505 203.506 534.667 200.369 538.744H200.401ZM183.478 530.358C188.73 532.945 193.991 535.546 199.294 538.211C202.421 534.167 205.526 530.032 208.608 525.805C203.443 523.654 198.324 521.568 193.205 519.487C189.989 523.176 186.754 526.825 183.478 530.358ZM166.803 522.161C171.949 524.633 177.206 527.27 182.425 529.825C185.679 526.315 188.904 522.698 192.121 519.036C187.066 516.978 181.929 514.832 176.921 512.847C173.553 515.994 170.194 519.142 166.812 522.161H166.803ZM150.104 514.349C155.306 516.785 160.434 519.119 165.691 521.642C169.063 518.641 172.408 515.53 175.754 512.401C170.626 510.379 165.617 508.514 160.544 506.561C157.08 509.185 153.61 511.827 150.114 514.349H150.104ZM133.71 506.68C138.736 508.978 143.869 511.431 148.951 513.812C152.425 511.312 155.88 508.702 159.34 506.097C154.373 504.19 149.36 502.214 144.443 500.376C140.878 502.494 137.303 504.645 133.719 506.68H133.71ZM117.31 499.328C122.365 501.575 127.373 503.758 132.474 506.088C136.03 504.075 139.582 501.952 143.138 499.861C138.148 497.996 133.25 496.259 128.31 494.467C124.662 496.116 120.986 497.775 117.31 499.347V499.328ZM101.104 492.224C106.026 494.354 110.974 496.521 115.945 498.726C119.575 497.178 123.21 495.547 126.845 493.938C121.999 492.183 117.174 490.459 112.37 488.765C108.621 489.941 104.858 491.113 101.113 492.243L101.104 492.224ZM85.2372 485.383C89.9746 487.372 94.7947 489.491 99.5873 491.558C103.263 490.451 106.971 489.293 110.666 488.153C105.956 486.504 101.251 484.85 96.5914 483.264L85.2372 485.383ZM69.3293 478.89C74.0162 480.801 78.648 482.639 83.3809 484.624C87.0568 483.944 90.7604 483.246 94.4547 482.557C89.8322 480.99 85.2647 479.515 80.7019 478.012C76.9111 478.343 73.111 478.61 69.3386 478.908L69.3293 478.89ZM54.1982 472.714C58.4439 474.396 62.8045 476.234 67.0962 477.975C70.7217 477.691 74.3839 477.41 78.0369 477.135C73.8463 475.756 69.5729 474.281 65.4191 472.962C61.6787 472.893 57.9293 472.802 54.2073 472.733L54.1982 472.714ZM39.2369 466.952C43.308 468.514 47.2874 469.953 51.3952 471.547C54.7817 471.607 58.205 471.694 61.619 471.777C57.5112 470.486 53.5043 469.328 49.4332 468.101C46.0421 467.742 42.6326 467.343 39.2461 466.971L39.2369 466.952ZM25.7369 461.861C28.8477 463.019 31.9769 464.204 35.1106 465.394C37.9457 465.702 40.8176 466.042 43.6802 466.369C40.62 465.45 37.5184 464.475 34.4903 463.584C31.5863 463.037 28.6547 462.445 25.746 461.879L25.7369 461.861ZM17.6727 458.814C18.3114 459.053 18.9685 459.315 19.6072 459.55C20.4619 459.711 21.3303 459.89 22.1849 460.055C20.6778 459.646 19.1937 459.26 17.6819 458.833L17.6727 458.814ZM243.212 583.279C248.8 586.716 254.423 590.211 260.081 593.764C262.677 587.883 265.098 581.482 267.58 575.26C262.13 572.264 256.671 569.245 251.295 566.364C248.616 572.081 245.969 577.861 243.212 583.279ZM225.356 572.48C230.958 575.871 236.499 579.166 242.151 582.635C244.908 577.25 247.541 571.469 250.206 565.79C244.729 562.858 239.376 560.115 233.949 557.262C231.1 562.431 228.27 567.582 225.347 572.48H225.356ZM207.73 561.82C213.189 565.036 218.786 568.506 224.318 571.851C227.227 566.98 230.043 561.82 232.874 556.687C227.507 553.866 222.098 550.98 216.791 548.251C213.805 552.864 210.781 557.432 207.721 561.82H207.73ZM190.136 551.615C195.65 554.831 201.113 557.891 206.71 561.204C209.761 556.839 212.752 552.281 215.739 547.704C210.335 544.947 205.033 542.301 199.689 539.612C196.518 543.693 193.334 547.727 190.127 551.615H190.136ZM172.739 541.616C178.167 544.704 183.625 547.841 189.111 551.026C192.328 547.144 195.471 543.141 198.623 539.079C193.286 536.396 187.982 533.762 182.71 531.176C179.397 534.737 176.071 538.202 172.73 541.616H172.739ZM155.531 531.875C160.88 534.852 166.311 537.958 171.719 541.028C175.046 537.637 178.354 534.177 181.644 530.648C176.397 528.07 171.103 525.428 165.916 522.937C162.46 525.988 158.991 528.934 155.522 531.875H155.531ZM138.355 522.533C143.731 525.46 149.043 528.286 154.483 531.305C157.934 528.387 161.376 525.446 164.808 522.418C159.51 519.877 154.332 517.52 149.089 515.066C145.509 517.612 141.925 520.065 138.346 522.533H138.355ZM121.505 513.371C126.698 516.128 132.019 519.091 137.275 521.945C140.832 519.496 144.393 517.056 147.94 514.529C142.808 512.125 137.62 509.639 132.547 507.324C128.857 509.387 125.177 511.363 121.496 513.371H121.505ZM104.642 504.608C109.889 507.328 115.059 509.934 120.37 512.75C124.023 510.761 127.676 508.799 131.325 506.754C126.137 504.392 121.073 502.205 115.941 499.926C112.164 501.52 108.4 503.046 104.633 504.608H104.642ZM88.0402 496.103C93.1222 498.67 98.2349 501.289 103.378 503.96C107.109 502.416 110.836 500.9 114.572 499.324C109.517 497.095 104.513 494.88 99.5322 492.73C95.6816 493.879 91.8632 494.972 88.0309 496.103H88.0402ZM71.7326 487.887C76.6538 490.313 81.6623 492.872 86.6387 495.386C90.4249 494.274 94.1974 493.185 97.9928 492.055C93.067 489.936 88.1412 487.809 83.2889 485.769L71.7326 487.887ZM55.3607 480.039C60.2635 482.387 65.1112 484.634 70.0646 487.092C73.8509 486.398 77.6141 485.713 81.4142 485.01C76.5343 482.975 71.7647 481.054 66.917 479.097C63.0435 479.405 59.2067 479.722 55.3515 480.039H55.3607ZM39.6367 472.494C44.1765 474.612 48.8266 476.919 53.4216 479.11C57.1802 478.803 60.9068 478.486 64.6793 478.191C60.1899 476.354 55.5996 474.424 51.1563 472.678C47.2919 472.59 43.4597 472.544 39.6274 472.494H39.6367ZM23.8483 465.321C28.356 467.366 32.7809 469.273 37.3392 471.391C40.9646 471.437 44.5579 471.46 48.2017 471.515C43.6802 469.746 39.2921 468.165 34.8211 466.461C31.136 466.062 27.4753 465.682 23.8391 465.321H23.8483ZM8.75842 458.585C12.7408 460.334 16.7368 462.117 20.7467 463.933C24.0689 464.264 27.3497 464.554 30.6902 464.903C26.881 463.465 23.0305 461.976 19.2579 460.588C15.7612 459.908 12.2322 459.233 8.75842 458.585ZM-4.33722 452.786C-1.35046 454.063 1.72815 455.479 4.73328 456.793C7.54535 457.298 10.3116 457.753 13.1375 458.281C9.86127 457.096 6.70447 456.071 3.45123 454.923C0.85968 454.224 -1.77325 453.466 -4.33722 452.795V452.786ZM-12.7598 449.321C-12.3003 449.514 -11.8408 449.689 -11.3813 449.882L-10.4623 450.102C-11.2435 449.854 -12.0062 449.583 -12.7598 449.33V449.321ZM233.94 600.183C239.706 604.144 245.427 608.032 251.281 612.13C254.07 606.391 256.905 600.781 259.598 594.761C253.937 591.202 248.316 587.705 242.734 584.271C239.872 589.79 236.885 594.922 233.94 600.193V600.183ZM215.67 587.814C221.405 591.692 227.102 595.506 232.888 599.471C235.824 594.219 238.81 589.114 241.668 583.609C235.998 580.126 230.434 576.823 224.814 573.418C221.823 578.403 218.735 583.072 215.67 587.823V587.814ZM197.653 575.609C203.232 579.286 208.984 583.292 214.655 587.097C217.71 582.369 220.794 577.723 223.785 572.77C218.229 569.411 212.61 565.946 207.123 562.698C204.003 567.159 200.824 571.378 197.653 575.619V575.609ZM179.609 563.947C185.307 567.656 190.866 571.129 196.638 574.948C199.804 570.72 202.983 566.516 206.094 562.082C200.47 558.751 195.002 555.677 189.437 552.432C186.189 556.407 182.903 560.198 179.609 563.957V563.947ZM161.822 552.46C167.372 556.003 172.987 559.651 178.602 563.3C181.892 559.555 185.173 555.791 188.417 551.876C182.903 548.685 177.417 545.531 171.958 542.415C168.61 545.846 165.231 549.198 161.822 552.469V552.46ZM144.191 541.294C149.705 544.74 155.251 548.265 160.824 551.817C164.209 548.554 167.579 545.226 170.933 541.832C165.479 538.735 160.02 535.624 154.635 532.642C151.166 535.578 147.688 538.491 144.191 541.294ZM126.615 530.514C132.129 533.892 137.588 537.186 143.157 540.669C146.644 537.866 150.118 534.985 153.578 532.058C148.106 529.016 142.748 526.163 137.335 523.222C133.774 525.694 130.199 528.162 126.615 530.524V530.514ZM109.379 519.946C114.705 523.162 120.182 526.581 125.572 529.88C129.147 527.532 132.703 525.088 136.264 522.639C130.966 519.762 125.595 516.766 120.361 513.986C116.699 515.994 113.041 518.03 109.379 519.951V519.946ZM92.0699 509.805C97.4874 512.985 102.804 515.994 108.29 519.28C111.939 517.368 115.582 515.36 119.222 513.371C113.846 510.517 108.621 507.903 103.305 505.15C99.5598 506.717 95.8102 508.307 92.0699 509.809V509.805ZM75.0364 499.939C80.2884 502.949 85.6048 506.032 90.8982 509.129C94.6155 507.641 98.342 506.065 102.064 504.534C96.8624 501.846 91.6702 499.172 86.5284 496.576C82.6732 497.679 78.8364 498.823 75.0364 499.939ZM58.2739 490.382C63.3789 493.24 68.5758 496.236 73.7451 499.19C77.5268 498.106 81.3314 496.971 85.1269 495.855C80.0356 493.286 74.9445 490.722 69.9083 488.25L58.2739 490.382ZM41.4609 481.192C46.5613 483.949 51.5974 486.655 56.7575 489.536C60.5714 488.843 64.4128 488.158 68.2449 487.432C63.1905 484.951 58.2142 482.612 53.2148 480.218L41.4609 481.192ZM25.2498 472.37C30.0056 474.897 34.8992 477.635 39.7102 480.255C43.5378 479.928 47.4022 479.616 51.262 479.299C46.5383 477.047 41.7136 474.649 37.0175 472.48C33.0904 472.428 29.1678 472.391 25.2498 472.37ZM8.98358 463.929C13.7486 466.392 18.4217 468.717 23.228 471.281C27.0235 471.281 30.8465 471.345 34.6741 471.386C29.8402 469.153 25.1717 467.168 20.3929 465.013C16.5852 464.633 12.7821 464.269 8.98358 463.919V463.929ZM-6.69904 455.933C-2.36749 458.118 1.99005 460.338 6.37366 462.596C10.0037 462.922 13.6613 463.276 17.3189 463.63C12.9904 461.691 8.62982 459.711 4.34729 457.845C0.659058 457.192 -3.02307 456.552 -6.69904 455.924V455.933ZM-21.164 448.627C-17.488 450.433 -13.6788 452.409 -9.95685 454.27C-6.54279 454.849 -3.10577 455.451 0.32666 456.048C-3.76746 454.279 -7.78351 452.625 -11.8362 450.916L-21.164 448.627ZM-35.3579 441.914C-32.2609 443.389 -29.2236 444.777 -26.1036 446.289C-23.6086 446.895 -21.0997 447.525 -18.6 448.127C-21.8946 446.748 -25.1846 445.397 -28.447 444.074C-30.7721 443.316 -33.042 442.645 -35.3579 441.905V441.914ZM-44.4514 437.613L-42.572 438.505L-40.1459 439.263C-41.5933 438.679 -43.0039 438.169 -44.433 437.604L-44.4514 437.613ZM-255.852 711.12C-252.594 713.39 -249.337 715.715 -246.074 717.93C-55.6172 821.174 139.164 841.635 250.808 613.114C244.945 609.02 239.196 605.114 233.411 601.144C115.872 810.73 -72.8712 799.155 -255.852 711.12ZM-274.232 698.093C-270.294 700.942 -266.356 703.777 -262.409 706.562C-77.7971 797.331 113.584 811.672 232.341 600.418C226.537 596.443 220.821 592.606 215.068 588.719C90.0757 781.689 -96.3562 774.88 -274.218 698.093H-274.232ZM-292.024 685.048C-287.604 688.347 -283.165 691.568 -278.735 694.794C-99.8897 773.308 88.1871 781.864 214.039 588.034C208.359 584.198 202.579 580.191 196.982 576.483C64.6241 752.534 -119.331 750.513 -292.01 685.048H-292.024ZM-309.655 671.608C-304.996 675.192 -300.345 678.836 -295.672 682.351C-122.309 749.097 62.8918 752.442 195.962 575.821C190.173 571.993 184.585 568.496 178.855 564.793C39.1955 723.434 -142.232 725.851 -309.641 671.608H-309.655ZM-327.437 657.763C-322.401 661.745 -317.347 665.683 -312.274 669.577C-144.479 724.657 37.7068 723.053 177.872 564.127C172.234 560.451 166.587 556.775 161.013 553.237C13.9507 694.532 -165.111 701.071 -327.424 657.763H-327.437ZM-345.165 643.555C-339.994 647.758 -334.803 651.918 -329.592 656.035C-167.036 699.954 12.5677 694.013 159.997 552.593C154.382 549.018 148.801 545.496 143.253 542.025C-11.1148 665.777 -187.879 676.148 -345.151 643.555H-345.165ZM-362.851 628.948C-357.599 633.322 -352.351 637.729 -347.067 642.034C-189.643 675.118 -12.4658 665.188 142.233 541.405C136.623 537.903 131.123 534.581 125.581 531.185C-36.0471 637.201 -210.555 651.073 -362.837 628.948H-362.851ZM-380.771 613.863C-375.358 618.476 -369.921 623.057 -364.459 627.606C-212.117 650.066 -37.3475 636.53 124.533 530.537C119.107 527.22 113.584 523.741 108.226 520.53C-60.7405 608.872 -233.259 625.869 -380.757 613.863H-380.771ZM-398.816 598.309C-393.302 603.118 -387.754 607.9 -382.173 612.654C-234.674 624.891 -62.0179 608.133 107.137 519.863C101.591 516.546 96.233 513.531 90.7557 510.32C-85.4661 580.811 -256.036 600.51 -398.802 598.309H-398.816ZM-416.957 582.226C-411.355 587.226 -405.759 592.248 -400.102 597.197C-257.405 599.554 -86.7803 580.002 89.5565 509.621C84.1987 506.492 78.8456 503.367 73.5568 500.339C-109.93 552.952 -278.735 574.98 -416.943 582.231L-416.957 582.226ZM-435.295 565.684C-429.597 570.892 -423.866 576.066 -418.101 581.206C-280.017 574.033 -111.249 552.097 72.2563 499.581C66.986 496.571 61.7201 493.571 56.514 490.667C-134.246 525.377 -301.48 549.331 -435.281 565.694L-435.295 565.684ZM-453.813 548.683C-448.042 554.05 -442.192 559.394 -436.352 564.729C-302.73 548.412 -135.657 524.504 54.9931 489.831C49.7456 486.908 44.6038 484.156 39.4207 481.334C-158.522 498.129 -324.304 523.576 -453.799 548.683H-453.813ZM-472.4 531.185C-466.579 536.721 -460.702 542.255 -454.769 547.787C-325.485 522.694 -159.96 497.242 37.716 480.429C32.7994 477.76 27.777 474.915 22.9155 472.356C-182.36 471.166 -346.989 497.674 -472.4 531.185ZM-491.175 513.168C-485.261 518.885 -479.333 524.61 -473.319 530.321C-348.161 496.815 -183.886 470.251 20.8984 471.239C15.8439 468.57 10.987 466.185 5.99225 463.639C-206.314 444.565 -369.789 471.694 -491.175 513.15V513.168ZM-510.097 494.692C-504.133 500.567 -498.112 506.449 -492.034 512.337C-370.97 470.908 -208.065 443.688 3.38239 462.325C-1.21265 459.968 -5.83514 457.578 -10.4026 455.304C-229.881 418.268 -392.479 445.622 -510.097 494.674V494.692ZM-487.807 534.264C-493.72 528.892 -499.547 523.516 -505.355 518.145C-509.32 519.574 -513.203 521.026 -517.067 522.487C-511.31 527.541 -505.539 532.596 -499.666 537.65C-495.77 536.492 -491.816 535.358 -487.807 534.246V534.264ZM-469.505 550.677C-475.325 545.497 -481.112 540.308 -486.865 535.109C-490.858 536.217 -494.786 537.338 -498.687 538.459C-493.008 543.336 -487.277 548.204 -481.493 553.062C-477.546 552.249 -473.525 551.454 -469.505 550.659V550.677ZM-451.387 566.567C-457.121 561.581 -462.847 556.591 -468.499 551.573C-472.51 552.364 -476.508 553.158 -480.445 553.949C-474.835 558.659 -469.142 563.332 -463.444 568.009L-451.387 566.567ZM-433.494 581.964C-439.127 577.173 -444.724 572.361 -450.284 567.527C-454.305 567.986 -458.325 568.496 -462.286 568.965C-456.772 573.49 -451.211 577.993 -445.602 582.474C-441.586 582.3 -437.561 582.13 -433.494 581.951V581.964ZM-415.868 596.857C-421.382 592.262 -426.831 587.621 -432.286 582.989C-436.314 583.173 -440.322 583.346 -444.311 583.508C-438.898 587.837 -433.48 592.161 -428.003 596.443C-423.978 596.581 -419.948 596.728 -415.868 596.843V596.857ZM-398.287 611.239C-403.709 606.832 -409.145 602.421 -414.517 597.964C-418.551 597.854 -422.544 597.716 -426.537 597.578C-421.225 601.717 -415.885 605.834 -410.515 609.929C-406.457 610.37 -402.381 610.821 -398.287 611.225V611.239ZM-381.065 625.024C-386.322 620.858 -391.56 616.669 -396.78 612.457C-400.847 612.061 -404.858 611.616 -408.879 611.175C-403.663 615.14 -398.388 619.037 -393.123 622.942C-389.125 623.65 -385.106 624.344 -381.065 625.024ZM-364.271 638.248C-369.298 634.365 -374.279 630.391 -379.269 626.448C-383.262 625.796 -387.227 625.102 -391.183 624.394C-386.129 628.129 -381.059 631.834 -375.974 635.51C-372.096 636.447 -368.176 637.329 -364.271 638.248ZM-347.494 650.967C-352.374 647.291 -357.259 643.615 -362.111 639.884C-365.948 639.011 -369.789 638.129 -373.599 637.201C-368.792 640.651 -363.981 644.093 -359.143 647.493C-355.278 648.674 -351.377 649.809 -347.494 650.953V650.967ZM-331.159 663.061C-335.782 659.674 -340.4 656.279 -344.999 652.833C-348.721 651.753 -352.457 650.714 -356.156 649.584C-351.561 652.8 -346.934 655.87 -342.316 659.004C-338.594 660.385 -334.875 661.738 -331.159 663.061ZM-315.394 674.502C-319.598 671.507 -323.784 668.419 -327.975 665.368C-331.421 664.159 -334.867 662.978 -338.309 661.729C-334.198 664.504 -330.076 667.247 -325.944 669.958C-322.429 671.488 -318.909 673.055 -315.38 674.521L-315.394 674.502ZM-300.373 684.961C-304.049 682.429 -307.725 679.943 -311.36 677.365C-314.276 676.173 -317.186 674.967 -320.09 673.744C-316.644 675.982 -313.198 678.229 -309.751 680.43C-306.645 681.951 -303.521 683.481 -300.373 684.961ZM-288.224 693.36C-290.264 691.982 -292.295 690.53 -294.331 689.138C-296.49 688.14 -298.641 687.093 -300.791 686.059C-298.177 687.695 -295.548 689.252 -292.934 690.865C-291.371 691.711 -289.805 692.529 -288.233 693.36H-288.224ZM270.447 627.004C169.468 864.711 -18.9814 848.151 -208.809 742.416C-8.06836 868.737 191.482 900.074 288.091 639.489C282.141 635.234 276.319 631.172 270.438 627.004H270.447ZM278.718 606.874C276.177 613.477 273.507 619.698 270.856 625.975C276.719 630.11 282.527 634.186 288.445 638.423C290.936 631.659 293.412 624.831 295.797 617.686C290.031 613.978 284.425 610.508 278.722 606.874H278.718ZM286.203 585.553C283.873 592.404 281.608 599.379 279.136 605.854C284.824 609.479 290.412 612.939 296.137 616.633C298.435 609.626 300.562 602.187 302.708 594.771C297.176 591.637 291.708 588.622 286.208 585.553H286.203ZM293.555 563.447C291.308 570.72 288.914 577.572 286.548 584.51C292.062 587.57 297.488 590.571 303.021 593.7C305.194 586.192 307.436 578.867 309.454 570.987C304.169 568.446 298.848 565.919 293.569 563.447H293.555ZM300.117 540.214C298.072 547.718 296.032 555.254 293.854 562.39C299.119 564.856 304.411 567.358 309.729 569.898C311.691 562.201 313.479 554.009 315.294 545.908C310.248 544.01 305.153 542.062 300.13 540.214H300.117ZM306.416 516.109C304.486 523.99 302.469 531.64 300.415 539.167C305.419 541.005 310.524 542.953 315.542 544.842C317.38 536.667 319.218 528.456 320.895 519.895C316.093 518.646 311.218 517.318 306.43 516.109H306.416ZM312.188 491.071C310.408 499.241 308.57 507.235 306.674 515.052C311.439 516.256 316.323 517.58 321.106 518.825C322.77 510.349 324.358 501.67 325.871 492.79C321.327 492.224 316.732 491.613 312.201 491.071H312.188ZM317.43 465.068C315.813 473.514 314.182 481.927 312.431 490.01C316.943 490.552 321.52 491.163 326.055 491.728C327.553 482.929 328.955 473.863 330.306 464.664C326.028 464.802 321.718 464.926 317.444 465.068H317.43ZM322.421 438.077C320.913 446.95 319.264 455.446 317.633 463.979C321.888 463.837 326.184 463.713 330.457 463.579C331.808 454.33 333.187 445.135 334.4 435.509L322.421 438.077ZM326.639 410.204C325.334 419.187 324.079 428.318 322.636 436.924L334.556 434.365C335.718 425.014 336.697 415.181 337.703 405.416C334.027 407.02 330.338 408.628 326.652 410.204H326.639ZM330.825 381.178C329.598 390.731 328.169 399.728 326.818 408.945C330.494 407.374 334.17 405.775 337.846 404.189C338.88 394.214 340.024 384.532 340.92 374.193C337.559 376.54 334.199 378.868 330.839 381.178H330.825ZM334.041 351.582C333.044 361.033 332.125 370.692 330.986 379.753C334.331 377.453 337.674 375.135 341.016 372.801C341.844 363.009 342.441 352.611 343.107 342.401C340.09 345.495 337.069 348.555 334.046 351.582H334.041ZM337.258 320.639C336.339 330.624 335.282 340.191 334.248 349.854C337.249 346.83 340.249 343.825 343.24 340.747C343.93 330.321 344.706 320.12 345.258 309.331C342.597 313.191 339.914 316.885 337.244 320.639H337.258ZM339.643 289.306C338.939 299.148 338.264 309.064 337.419 318.535C339.812 315.171 342.225 311.867 344.591 308.389L344.619 308.352L344.66 308.311L345.322 307.654C345.823 297.545 346.158 287.018 346.517 276.546L345.51 277.979C343.571 281.857 341.591 285.547 339.629 289.306H339.643ZM341.871 256.544C341.274 266.745 340.566 276.651 339.854 286.544C341.425 283.535 343.011 280.571 344.555 277.465V277.433L344.587 277.391C345.255 276.448 345.918 275.504 346.576 274.561C346.944 264.02 347.367 253.631 347.61 242.786L345.524 246.922C344.329 250.226 343.084 253.364 341.857 256.544H341.871ZM343.42 223.579C342.997 233.518 342.579 243.462 342.041 253.079C342.882 250.915 343.727 248.774 344.541 246.527V246.495V246.467C345.579 244.418 346.612 242.37 347.638 240.324C347.849 230.15 347.913 219.609 347.987 209.078L345.542 215.874C344.853 218.516 344.127 221.025 343.406 223.579H343.42ZM344.702 189.232C344.412 199.217 344.049 209.023 343.645 218.713C343.939 217.68 344.237 216.655 344.518 215.58V215.557C345.694 212.294 346.863 209.041 348.024 205.797C348.093 195.307 348.235 184.995 348.208 174.257C347.325 177.786 346.44 181.326 345.552 184.876C345.276 186.356 344.982 187.789 344.688 189.232H344.702ZM345.4 155.147C345.235 164.626 345.078 174.128 344.826 183.36C345.944 178.887 347.057 174.43 348.166 169.988C348.111 160.38 347.936 150.45 347.762 140.53L345.579 153.791C345.51 154.255 345.441 154.687 345.386 155.147H345.4ZM345.8 120.5C345.8 129.58 345.694 138.471 345.561 147.243L347.679 134.377C347.505 124.7 347.463 115.359 347.22 105.553L345.8 120.5ZM345.685 89.1719C345.685 95.9586 345.777 102.911 345.758 109.624L346.939 97.3188C346.751 90.5504 346.48 83.5339 346.19 76.5495L345.685 89.1719ZM345.584 60.7382C345.584 61.9834 345.584 63.1276 345.584 64.3636L345.667 62.3189C345.63 61.3539 345.598 60.4074 345.561 59.4378L345.584 60.7382ZM344.72 120.445C344.72 119.439 344.72 118.364 344.72 117.344C344.665 119.021 344.605 120.661 344.55 122.329L344.72 120.445ZM344.316 155.073C344.444 147.721 344.683 140.631 344.775 133.141C344.453 137.695 344.054 142.028 343.718 146.54C343.464 153.184 343.176 159.74 342.854 166.207C343.328 162.521 343.842 158.891 344.302 155.073H344.316ZM343.622 189.14C343.856 181.241 343.976 173.026 344.113 164.865C343.424 170.471 342.666 175.893 341.931 181.407C341.471 189.218 341.012 197.154 340.525 204.873C341.545 199.663 342.615 194.507 343.608 189.14H343.622ZM342.331 223.446C342.74 214.141 343.176 204.919 343.488 195.38C342.377 201.321 341.191 207.097 340.038 212.901C339.413 221.815 338.659 230.444 337.974 239.133C339.422 233.937 340.897 228.772 342.317 223.446H342.331ZM340.787 256.346C341.315 247.244 341.706 237.746 342.101 228.317C340.575 233.973 339.013 239.524 337.446 245.07C336.711 253.874 335.971 262.66 335.149 271.183C337.014 266.262 338.912 261.359 340.773 256.346H340.787ZM338.558 289.044C339.27 279.367 340.019 269.777 340.626 259.815C338.696 264.971 336.749 270.078 334.786 275.135C333.839 284.376 332.759 293.248 331.721 302.245C334 297.877 336.274 293.472 338.544 289.03L338.558 289.044ZM336.178 320.29C337.01 311.1 337.653 301.382 338.347 291.801C336.022 296.327 333.697 300.844 331.358 305.301C330.342 314.146 329.341 323.038 328.206 331.552C330.862 327.839 333.513 324.062 336.164 320.276L336.178 320.29ZM332.961 351.131C333.991 341.597 335.08 332.232 335.994 322.39C333.301 326.204 330.618 330.054 327.911 333.817C326.671 342.888 325.256 351.494 323.914 360.298C326.947 357.279 329.956 354.182 332.971 351.131H332.961ZM329.768 380.599C330.894 371.689 331.79 362.155 332.773 352.864C329.727 355.942 326.689 359.085 323.634 362.122C322.342 370.669 321.111 379.377 319.696 387.574C323.064 385.29 326.418 382.915 329.777 380.599H329.768ZM325.6 409.474C326.937 400.385 328.357 391.466 329.561 382.055C326.188 384.38 322.816 386.761 319.452 389.049C317.931 397.697 316.236 405.83 314.595 414.197C318.258 412.635 321.933 411.05 325.609 409.474H325.6ZM321.41 437.186C322.848 428.653 324.112 419.638 325.416 410.737C321.74 412.318 318.023 413.912 314.333 415.47C312.753 423.64 311.204 431.893 309.499 439.727L321.41 437.186ZM316.447 464.016C318.074 455.57 319.696 447.125 321.198 438.344L309.224 440.894C307.446 448.972 305.548 456.678 303.65 464.462C307.911 464.312 312.18 464.163 316.456 464.016H316.447ZM311.25 489.858C312.996 481.826 314.632 473.495 316.245 465.105C311.956 465.246 307.668 465.399 303.379 465.564C301.513 473.27 299.625 480.925 297.644 488.31C302.184 488.81 306.697 489.311 311.259 489.858H311.25ZM305.506 514.767C307.406 507.002 309.244 499.053 311.02 490.92C306.425 490.368 301.904 489.867 297.364 489.357C295.342 496.829 293.229 504.089 291.115 511.252C295.903 512.415 300.65 513.545 305.516 514.767H305.506ZM299.262 538.753C301.316 531.259 303.333 523.668 305.263 515.824C300.397 514.597 295.613 513.462 290.802 512.295C288.652 519.482 286.433 526.466 284.177 533.336C289.208 535.137 294.217 536.892 299.271 538.753H299.262ZM292.728 561.866C294.901 554.771 296.923 547.259 298.968 539.81C293.877 537.94 288.859 536.175 283.827 534.37C281.571 541.23 279.297 548.053 276.935 554.588C282.205 557.009 287.434 559.385 292.737 561.866H292.728ZM285.426 583.89C287.788 576.997 290.187 570.169 292.429 562.923C287.108 560.432 281.861 558.052 276.576 555.612C274.15 562.247 271.6 568.524 269.073 574.861C274.523 577.852 279.972 580.839 285.436 583.89H285.426ZM278.019 605.164C280.468 598.731 282.752 591.779 285.082 584.946C279.568 581.886 274.132 578.89 268.673 575.89C266.187 582.148 263.752 588.554 261.151 594.472C266.748 597.982 272.371 601.547 278.019 605.164ZM269.748 625.221C272.395 618.972 275.056 612.76 277.587 606.184C271.942 602.585 266.308 599.013 260.687 595.469C257.985 601.521 255.136 607.131 252.338 612.902C258.109 616.914 263.959 621.095 269.758 625.198L269.748 625.221ZM-228.935 729.399C-32.8766 844.88 164.951 871.383 269.335 626.228C263.518 622.092 257.654 617.915 251.874 613.867C141.981 839.48 -48.6374 823.334 -236.416 724.487C-233.925 726.145 -231.448 727.754 -228.935 729.399ZM-268.401 704.958C-266.43 706.235 -264.463 707.573 -262.492 708.832C-260.195 710.141 -257.897 711.524 -255.563 712.811C-258.076 711.065 -260.59 709.323 -263.099 707.563C-264.868 706.713 -266.632 705.845 -268.401 704.958ZM-288.477 691.747C-284.704 694.293 -280.918 696.751 -277.136 699.233C-274.558 700.561 -271.976 701.852 -269.389 703.129C-272.725 700.735 -276.056 698.226 -279.392 695.777C-282.42 694.449 -285.453 693.121 -288.477 691.747ZM-306.457 679.313C-302.229 682.27 -297.994 685.198 -293.752 688.099C-290.475 689.611 -287.185 691.04 -283.9 692.487C-288.036 689.45 -292.171 686.445 -296.306 683.339C-299.694 682.006 -303.078 680.664 -306.457 679.313ZM-324.147 666.705C-319.667 669.921 -315.201 673.207 -310.707 676.354C-307.031 677.852 -303.355 679.29 -299.679 680.733C-304.1 677.393 -308.511 673.974 -312.913 670.569C-316.671 669.338 -320.402 667.996 -324.147 666.705ZM-341.87 653.761C-337.041 657.359 -332.179 660.874 -327.327 664.398C-323.477 665.744 -319.621 667.091 -315.762 668.4C-320.586 664.651 -325.397 660.865 -330.194 657.042C-334.096 655.985 -337.983 654.873 -341.87 653.761ZM-359.331 640.523C-354.359 644.33 -349.374 648.11 -344.374 651.863C-340.368 653.026 -336.375 654.206 -332.349 655.314C-337.464 651.243 -342.592 647.181 -347.674 643.036C-351.57 642.224 -355.456 641.394 -359.331 640.546V640.523ZM-376.898 626.848C-371.774 630.878 -366.651 634.917 -361.491 638.882C-357.508 639.801 -353.526 640.682 -349.544 641.524C-354.741 637.279 -359.887 632.927 -365.047 628.617C-369.004 628.043 -372.974 627.478 -376.898 626.848ZM-394.768 612.636C-389.437 616.937 -384.061 621.192 -378.685 625.433C-374.697 626.085 -370.672 626.683 -366.646 627.271C-372.016 622.777 -377.369 618.248 -382.706 613.683C-386.759 613.357 -390.775 613.013 -394.768 612.636ZM-412.665 597.992C-407.225 602.495 -401.753 606.97 -396.252 611.418C-392.236 611.804 -388.174 612.144 -384.112 612.484C-389.626 607.765 -395.14 603.041 -400.608 598.263C-404.651 598.194 -408.663 598.093 -412.665 597.992ZM-430.627 582.897C-425.113 587.575 -419.599 592.257 -414.016 596.884C-409.991 596.995 -405.944 597.086 -401.876 597.16C-407.473 592.252 -413.01 587.276 -418.556 582.323C-422.599 582.53 -426.615 582.713 -430.627 582.897ZM-448.791 567.334C-443.176 572.198 -437.525 577.045 -431.84 581.872C-427.805 581.689 -423.785 581.509 -419.7 581.303C-425.419 576.184 -431.105 571.041 -436.756 565.873C-440.797 566.369 -444.808 566.856 -448.791 567.334ZM-467.138 551.288C-461.445 556.343 -455.651 561.36 -449.889 566.374L-437.809 564.912C-443.617 559.601 -449.425 554.284 -455.159 548.945C-459.18 549.726 -463.182 550.507 -467.134 551.288H-467.138ZM-485.596 534.746C-479.825 539.969 -474.005 545.188 -468.135 550.401C-464.169 549.62 -460.163 548.836 -456.12 548.049C-462.01 542.559 -467.86 537.045 -473.668 531.507C-477.675 532.564 -481.677 533.644 -485.592 534.728L-485.596 534.746ZM-504.169 517.745C-498.338 523.135 -492.484 528.534 -486.538 533.919C-482.614 532.83 -478.607 531.76 -474.591 530.703C-480.565 525.014 -486.474 519.312 -492.356 513.619C-496.335 514.945 -500.271 516.308 -504.165 517.708L-504.169 517.745ZM-522.903 500.215C-517.012 505.772 -511.062 511.33 -505.052 516.89C-501.152 515.487 -497.205 514.101 -493.21 512.732C-499.27 506.859 -505.272 500.99 -511.218 495.124C-515.179 496.792 -519.034 498.506 -522.903 500.215ZM-525.986 379.758C-419.911 333.808 -269.665 334.755 -56.7383 431.796C-47.288 435.371 -37.7167 439.12 -28.0243 443.045C-17.5386 446.454 -6.88745 450.116 3.91071 453.93C14.0886 456.655 24.3538 459.504 34.7844 462.559C44.3144 464.48 53.9515 466.528 63.6959 468.703C73.8049 469.962 84.0211 471.319 94.3444 472.774C103.476 473.099 112.683 473.482 121.965 473.923C131.155 473.289 140.42 472.676 149.76 472.085C158.588 470.378 167.457 468.654 176.365 466.911C184.675 464.068 193.009 461.158 201.366 458.18C209.432 453.962 217.497 449.628 225.563 445.177C232.875 439.699 240.164 434.058 247.431 428.253C254.51 420.932 261.545 413.389 268.535 405.623C274.561 397.141 280.516 388.392 286.401 379.377C292.365 368.012 298.216 356.262 303.953 344.129C308.309 332.641 312.532 320.694 316.668 308.536C321.014 292.453 325.15 275.76 329.129 258.607C331.781 243.756 334.257 228.413 336.596 212.699C338.893 191.392 340.846 169.166 342.615 146.448C343.42 128.684 344.072 110.525 344.486 91.7405L344.591 89.1581C344.591 79.7522 344.633 70.5209 344.486 60.775L344.233 24.3782C342.17 -19.8576 340.134 -63.0228 338.163 -104.846C335.02 -171.602 332.062 -234.965 329.29 -294.936H330.374C333.131 -234.895 336.089 -171.548 339.247 -104.897C340.807 -71.813 342.404 -37.8316 344.04 -2.95273L343.691 -51.3607C343.057 -138.359 342.542 -219.551 342.147 -294.936H343.227C343.551 -219.449 344.066 -138.259 344.771 -51.3653C344.951 -26.6138 345.132 -1.38123 345.313 24.3322L345.57 29.7589C345.859 36.054 345.988 41.9264 346.232 48.0928C347.273 21.733 348.295 -4.103 349.297 -29.4152C353.083 -125.243 356.575 -213.577 360.182 -294.936H361.262C357.655 -213.572 354.163 -125.225 350.376 -29.3463C349.2 0.499634 347.99 31.0715 346.746 62.3694C347.091 71.3664 347.468 80.4323 347.716 89.1719C351.906 45.4216 355.93 3.13104 359.787 -37.6999C368.609 -130.762 376.729 -216.366 384.701 -294.913H385.785C377.813 -216.339 369.703 -130.707 360.862 -37.5942C356.754 5.77927 352.466 50.7794 347.996 97.4061C348.286 107.887 348.456 118.125 348.653 128.321C360.159 58.211 370.881 -8.13281 380.818 -70.7102C393.762 -151.407 405.741 -226.062 417.334 -294.908H418.433C406.826 -226.025 394.842 -151.311 381.884 -70.5402C371.542 -6.06049 360.485 62.2821 348.713 134.488C348.897 145.056 349.09 155.666 349.145 165.913C374.688 63.4585 397.144 -31.2394 417.821 -118.314C432.727 -181.155 446.692 -239.994 460.187 -294.963H461.308C447.79 -239.929 433.807 -181.008 418.878 -118.057C397.962 -29.8839 375.194 66.1005 349.255 170.112C349.301 181.14 349.255 191.915 349.168 202.631C397.838 66.6933 437.805 -56.7737 473.563 -167.228C488.042 -211.95 501.831 -254.532 515.226 -294.968H516.365C502.934 -254.449 489.112 -211.748 474.597 -166.906C438.581 -55.6525 398.288 68.8162 349.154 205.93C349.081 216.765 349.016 227.632 348.8 238.095C430.848 74.7667 492.664 -74.4321 546.848 -205.21C559.677 -236.18 572.136 -266.098 584.224 -294.963H585.4C573.202 -265.987 560.688 -235.93 547.859 -204.792C493.455 -73.4718 431.354 76.4209 348.745 240.567C348.502 251.563 348.134 262.242 347.762 272.902C473.025 95.0259 558.363 -76.0909 632.586 -224.927C644.533 -248.87 656.225 -272.215 667.664 -294.963H668.877C657.31 -272.089 645.536 -248.583 633.555 -224.444C559.117 -75.2087 473.54 96.4319 347.684 274.887C347.316 285.524 346.985 296.254 346.471 306.5C522.297 131.505 630.031 -58.9746 724.177 -225.423C737.592 -249.139 750.778 -272.319 763.736 -294.963H764.985C751.865 -272.172 738.577 -248.814 725.119 -224.89C630.808 -58.12 522.849 132.769 346.429 308.095C345.873 318.833 345.152 329.14 344.463 339.524L344.669 339.318L344.711 339.272L344.761 339.24C575.985 185.221 703.509 -24.5261 816.256 -209.984C833.906 -239.019 851.178 -267.421 868.469 -294.963H869.746C852.359 -267.251 834.953 -238.652 817.18 -209.419C704.382 -23.8874 576.807 185.965 345.372 340.113C345.023 340.476 344.669 340.825 344.316 341.179C343.64 351.522 343.038 362.063 342.202 371.965C343.038 371.391 343.879 370.821 344.711 370.223L344.766 370.187L344.821 370.164C632.894 253.143 776.877 23.0089 905.867 -183.145C929.894 -221.549 953.402 -259.122 977.227 -294.982H978.528C954.579 -258.957 930.947 -221.186 906.786 -182.575C777.723 23.7119 633.652 253.989 345.281 371.147C344.224 371.901 343.162 372.622 342.101 373.348C341.182 383.769 340.079 393.607 339.041 403.675C340.961 402.848 342.877 402.03 344.807 401.18H344.858H344.922C691.098 333.868 848.949 80.4185 991.734 -148.871C1023.27 -199.503 1054.07 -248.963 1086.01 -294.991H1087.33C1055.27 -248.788 1024.36 -199.13 992.653 -148.278C849.749 81.172 691.769 334.81 345.175 402.2C343.075 403.119 340.989 404.038 338.898 404.911C337.887 414.73 336.936 424.706 335.764 434.107C338.806 433.455 341.839 432.807 344.895 432.145H345C750.029 424.747 919.615 144.564 1073.76 -110.085C1113.06 -175.007 1151.35 -238.284 1192.29 -294.949H1193.63C1152.54 -238.146 1114.13 -174.671 1074.69 -109.524C920.424 145.35 750.686 425.79 345.106 433.225L335.631 435.261C334.404 444.961 333.026 454.238 331.661 463.556C336.104 463.414 340.539 463.267 345.014 463.138H345.101C809.557 523.695 989.119 213.098 1152.15 -68.9182C1198.88 -149.744 1244.26 -228.221 1294.6 -294.968H1295.98C1245.48 -228.129 1199.98 -149.436 1153.12 -68.3714C989.919 213.921 810.172 524.84 345.032 464.186C340.502 464.315 336.022 464.462 331.528 464.604C330.149 473.845 328.771 483.021 327.287 491.852C333.219 492.592 339.128 493.309 345.124 494.099H345.156H345.189C869.627 629.191 1057.69 284.385 1227.38 -26.7225C1280.9 -124.857 1332.6 -219.642 1392.46 -295H1393.83C1333.81 -219.606 1281.98 -124.591 1228.32 -26.1941C1058.45 285.258 870.174 630.427 344.95 495.165C338.944 494.37 333.026 493.654 327.084 492.914C325.554 501.833 323.964 510.581 322.287 519.105C329.897 521.076 337.451 523.02 345.184 525.106H345.212C930.248 740.224 1125.51 357.325 1299.76 15.6294C1359.35 -101.212 1416.47 -213.228 1485.9 -294.959H1487.32C1417.71 -213.269 1360.45 -100.996 1300.73 16.121C1126.27 358.221 930.781 741.566 344.867 526.163C337.193 524.081 329.648 522.152 322.071 520.19C320.371 528.778 318.565 537.076 316.723 545.278C326.165 548.816 335.617 552.368 345.212 556.131H345.239C991.596 855.926 1192.85 430.914 1369.75 57.3379C1434.69 -79.7807 1496.34 -209.984 1575.52 -294.963H1577C1497.61 -210.108 1435.81 -79.6382 1370.74 57.7974C1193.62 431.828 992.11 857.35 344.821 557.151C335.268 553.407 325.867 549.873 316.475 546.349C314.637 554.491 312.858 562.725 310.887 570.454C322.237 575.858 333.664 581.376 345.267 587.157H345.29C896.618 889.593 1143.69 671.3 1309.93 368.032C1357.34 281.545 1398.18 188.157 1437.63 97.9483C1507.36 -61.5294 1572.76 -211.05 1662.41 -294.963H1663.98C1574.05 -211.335 1508.52 -61.4881 1438.6 98.3664C1399.15 188.598 1358.29 282.018 1310.86 368.551C1144.35 672.32 896.902 890.999 344.771 588.126C333.246 582.387 321.897 576.905 310.621 571.534C308.571 579.442 306.338 586.83 304.16 594.357C317.688 602.015 331.398 609.952 345.29 618.168C885.507 955.136 1150.26 800.373 1321.22 526.131C1394.46 408.628 1450.51 269.185 1503.61 137.07C1576.99 -45.493 1644.74 -214.073 1744.55 -291.641C1746.02 -292.785 1747.51 -293.874 1748.99 -294.977H1750.82C1748.95 -293.599 1747.09 -292.22 1745.24 -290.786C1645.66 -213.402 1577.96 -44.9554 1504.63 137.465C1451.52 269.626 1395.45 409.115 1322.16 526.696C1150.9 801.434 885.709 956.51 344.761 619.083C330.952 610.904 317.32 603.015 303.866 595.418C301.72 602.849 299.593 610.338 297.3 617.359C313.038 627.519 329.088 638.184 345.331 649.166C889.946 1025.49 1169.72 911.493 1346.88 654.951C1441.59 517.8 1507.02 339.892 1567.9 174.372C1631.35 1.84442 1689.87 -157.243 1771.5 -242.842V-241.285C1690.43 -155.662 1632.13 2.86908 1568.91 174.762C1508.02 340.342 1442.57 518.31 1347.78 655.585C1170.28 912.614 890.052 1026.91 344.725 650.071C328.559 639.14 312.592 628.534 296.937 618.416C294.57 625.584 292.089 632.426 289.585 639.218C307.83 652.295 326.42 665.95 345.354 680.182C901.672 1098.27 1195.81 1015.24 1379.65 770.441C1493.58 618.733 1565.22 404.883 1630.63 209.62C1676.49 72.6898 1719.31 -55.0505 1771.5 -145.953V-143.77C1719.78 -53.0977 1677.23 73.9166 1631.66 209.965C1566.22 405.306 1494.56 619.243 1380.52 771.094C1196.31 1016.37 901.723 1099.63 344.702 681.032C325.868 666.879 307.369 653.289 289.203 640.261C189.084 910.67 -21.4167 867.969 -229.509 730.488C-240.709 723.88 -251.89 717.011 -263.053 709.879C-273.244 704.089 -283.413 698.084 -293.559 691.862C-304.587 685.941 -315.559 679.796 -326.477 673.427C-336.742 668.22 -346.949 662.805 -357.098 657.184C-367.948 652.05 -378.714 646.743 -389.396 641.263C-399.698 636.799 -409.9 632.18 -420.003 627.404C-430.651 623.299 -441.166 619.032 -451.548 614.602C-462.015 611.101 -472.367 607.489 -482.513 603.74C-492.686 600.949 -502.674 598.05 -512.477 595.042C-517.029 594.123 -521.535 593.176 -525.995 592.202V591.095L-523.358 591.651L-525.986 590.81V589.335C-523.027 589.656 -520.045 589.964 -517.058 590.254C-520.059 589.027 -523.032 587.791 -525.986 586.55V585.406C-521.731 587.183 -517.443 588.946 -513.12 590.695C-509.444 591.058 -505.718 591.393 -501.982 591.724C-506.471 589.555 -510.906 587.359 -515.307 585.158C-518.901 585.158 -522.448 585.185 -525.986 585.19V584.115C-523.165 584.115 -520.316 584.115 -517.463 584.083C-520.321 582.655 -523.162 581.22 -525.986 579.777V578.555C-522.356 580.393 -518.703 582.231 -515.027 584.069C-511.154 584.069 -507.216 584 -503.259 583.949C-508.24 581.107 -513.178 578.245 -518.074 575.366L-525.986 576.216V575.132L-519.622 574.424C-521.748 573.168 -523.869 571.918 -525.986 570.674V569.411C-523.269 571.022 -520.544 572.633 -517.812 574.245C-513.892 573.785 -509.918 573.363 -505.92 572.908C-511.213 569.438 -516.488 565.965 -521.681 562.468L-525.986 563.387V562.284L-522.917 561.627L-525.986 559.555V558.236L-521.428 561.31C-517.522 560.483 -513.572 559.651 -509.578 558.815C-515.092 554.767 -520.606 550.714 -525.986 546.647V545.269L-525.816 545.398C-521.947 544.194 -518.022 543.005 -514.039 541.832C-518.055 538.582 -522.038 535.328 -525.986 532.072V530.634C-521.612 534.241 -517.219 537.848 -512.762 541.446C-508.865 540.283 -504.95 539.148 -500.962 537.977C-506.793 532.959 -512.523 527.927 -518.248 522.91C-520.846 523.893 -523.425 524.881 -525.986 525.873V524.752C-523.725 523.873 -521.449 523 -519.158 522.133C-521.446 520.108 -523.722 518.091 -525.986 516.082V514.597C-523.33 516.953 -520.661 519.31 -517.977 521.669C-514.104 520.208 -510.216 518.742 -506.242 517.308C-512.227 511.767 -518.147 506.23 -524.001 500.698L-525.986 501.584V500.399L-524.851 499.889L-525.986 498.827V497.307L-523.748 499.416C-519.879 497.702 -516.015 495.979 -512.045 494.306C-516.729 489.69 -521.376 485.078 -525.986 480.471V478.908C-521.014 483.88 -515.994 488.863 -510.924 493.856C-393.729 444.864 -231.908 417.386 -13.6467 453.627C-17.9981 451.463 -22.3036 449.367 -26.609 447.281C-251.184 392.835 -412.146 419.027 -525.986 474.208V472.981C-412.872 418.241 -253.412 392.109 -31.5257 444.951C-35.3993 443.113 -39.2361 441.275 -43.0683 439.493C-261.33 371.547 -416.41 390.326 -526 444.501V443.205C-417.513 389.711 -264.638 370.821 -50.2686 436.069C-52.5385 435.017 -54.8957 433.841 -57.161 432.812C-269.371 352.579 -419.677 362.495 -525.986 413.196V411.817C-422.838 362.734 -278.464 351.917 -76.4691 424.38C-279.075 336.078 -423.312 336.616 -525.986 381.219V379.758Z" fill="#C1C1C1" fill-opacity="0.2"/>
</svg>
