<svg width="22" height="21" viewBox="0 0 22 21" fill="none" xmlns="http://www.w3.org/2000/svg">
<path d="M17.5859 2.625C18.0501 2.625 18.4952 2.80937 18.8234 3.13756C19.1516 3.46575 19.3359 3.91087 19.3359 4.375V16.625C19.3359 17.0891 19.1516 17.5342 18.8234 17.8624C18.4952 18.1906 18.0501 18.375 17.5859 18.375H5.33594C4.87181 18.375 4.42669 18.1906 4.0985 17.8624C3.77031 17.5342 3.58594 17.0891 3.58594 16.625V4.375C3.58594 3.91087 3.77031 3.46575 4.0985 3.13756C4.42669 2.80937 4.87181 2.625 5.33594 2.625H17.5859ZM17.1484 16.1875V11.55C17.1484 10.7935 16.8479 10.0679 16.313 9.53298C15.778 8.99803 15.0525 8.6975 14.2959 8.6975C13.5522 8.6975 12.6859 9.1525 12.2659 9.835V8.86375H9.82469V16.1875H12.2659V11.8737C12.2659 11.2 12.8084 10.6488 13.4822 10.6488C13.8071 10.6488 14.1187 10.7778 14.3484 11.0075C14.5781 11.2373 14.7072 11.5489 14.7072 11.8737V16.1875H17.1484ZM6.98094 7.49C7.37081 7.49 7.74471 7.33513 8.02038 7.05945C8.29606 6.78377 8.45094 6.40987 8.45094 6.02C8.45094 5.20625 7.79469 4.54125 6.98094 4.54125C6.58875 4.54125 6.21262 4.69705 5.9353 4.97437C5.65798 5.25169 5.50219 5.62781 5.50219 6.02C5.50219 6.83375 6.16719 7.49 6.98094 7.49ZM8.19719 16.1875V8.86375H5.77344V16.1875H8.19719Z" fill="white"/>
</svg>
