<svg width="60" height="60" viewBox="0 0 60 60" fill="none" xmlns="http://www.w3.org/2000/svg">
<rect width="60" height="60" rx="30" fill="#AA77FF"/>
<path d="M13 29C12.4477 29 12 29.4477 12 30C12 30.5523 12.4477 31 13 31V29ZM47.7071 30.7071C48.0976 30.3166 48.0976 29.6834 47.7071 29.2929L41.3431 22.9289C40.9526 22.5384 40.3195 22.5384 39.9289 22.9289C39.5384 23.3195 39.5384 23.9526 39.9289 24.3431L45.5858 30L39.9289 35.6569C39.5384 36.0474 39.5384 36.6805 39.9289 37.0711C40.3195 37.4616 40.9526 37.4616 41.3431 37.0711L47.7071 30.7071ZM13 31H47V29H13V31Z" fill="white"/>
</svg>
