<svg width="22" height="21" viewBox="0 0 22 21" fill="none" xmlns="http://www.w3.org/2000/svg">
<path d="M12.3078 12.0065C12.3078 12.0065 12.4116 11.9025 12.6194 11.6947C12.8271 11.4868 12.931 11.0892 12.931 10.5016C12.931 9.91412 12.7233 9.41251 12.3078 8.99682C11.8923 8.58112 11.3909 8.37327 10.8037 8.37327C10.2165 8.37327 9.71515 8.58112 9.29967 8.99682C8.88418 9.41251 8.67644 9.91412 8.67644 10.5016C8.67644 11.0892 8.88418 11.5908 9.29967 12.0065C9.71515 12.4221 10.2165 12.63 10.8037 12.63C11.3909 12.63 11.8923 12.4221 12.3078 12.0065ZM13.1221 8.18205C13.1221 8.18205 13.2814 8.3414 13.5999 8.6601C13.9185 8.9788 14.0777 9.59265 14.0777 10.5016C14.0777 11.4106 13.7592 12.1838 13.1221 12.8212C12.485 13.4586 11.7122 13.7773 10.8037 13.7773C9.89519 13.7773 9.12239 13.4586 8.48532 12.8212C7.84824 12.1838 7.5297 11.4106 7.5297 10.5016C7.5297 9.59265 7.84824 8.81945 8.48532 8.18205C9.12239 7.54465 9.89519 7.22596 10.8037 7.22596C11.7122 7.22596 12.485 7.54465 13.1221 8.18205ZM14.7508 6.55253C14.7508 6.55253 14.7882 6.58994 14.863 6.66477C14.9378 6.73959 14.9752 6.88231 14.9752 7.09293C14.9752 7.30355 14.9004 7.48369 14.7508 7.63334C14.6013 7.78299 14.4212 7.85781 14.2107 7.85781C14.0002 7.85781 13.8201 7.78299 13.6706 7.63334C13.521 7.48369 13.4462 7.30355 13.4462 7.09293C13.4462 6.88231 13.521 6.70218 13.6706 6.55253C13.8201 6.40288 14.0002 6.32805 14.2107 6.32805C14.4212 6.32805 14.6013 6.40288 14.7508 6.55253ZM11.4394 5.25972C11.4394 5.25972 11.3432 5.26041 11.1507 5.26179C10.9581 5.26318 10.8425 5.26387 10.8037 5.26387C10.7649 5.26387 10.553 5.26249 10.168 5.25972C9.78301 5.25694 9.49079 5.25694 9.29136 5.25972C9.09192 5.26249 8.82463 5.2708 8.48947 5.28466C8.15431 5.29851 7.86901 5.32623 7.63357 5.3678C7.39813 5.40937 7.20008 5.46064 7.03943 5.5216C6.76244 5.63246 6.51869 5.79319 6.30818 6.00381C6.09766 6.21443 5.93701 6.4583 5.82621 6.73543C5.76528 6.89617 5.71403 7.09432 5.67248 7.32988C5.63094 7.56544 5.60324 7.85088 5.58939 8.18621C5.57554 8.52154 5.56723 8.78897 5.56446 8.9885C5.56169 9.18804 5.56169 9.48041 5.56446 9.86562C5.56723 10.2508 5.56861 10.4628 5.56861 10.5016C5.56861 10.5404 5.56723 10.7524 5.56446 11.1377C5.56169 11.5229 5.56169 11.8152 5.56446 12.0148C5.56723 12.2143 5.57554 12.4817 5.58939 12.8171C5.60324 13.1524 5.63094 13.4378 5.67248 13.6734C5.71403 13.909 5.76528 14.1071 5.82621 14.2678C5.93701 14.545 6.09766 14.7888 6.30818 14.9995C6.51869 15.2101 6.76244 15.3708 7.03943 15.4817C7.20008 15.5426 7.39813 15.5939 7.63357 15.6355C7.86901 15.677 8.15431 15.7048 8.48947 15.7186C8.82463 15.7325 9.09192 15.7408 9.29136 15.7436C9.49079 15.7463 9.78301 15.7463 10.168 15.7436C10.553 15.7408 10.7649 15.7394 10.8037 15.7394C10.8425 15.7394 11.0544 15.7408 11.4394 15.7436C11.8244 15.7463 12.1167 15.7463 12.3161 15.7436C12.5155 15.7408 12.7828 15.7325 13.118 15.7186C13.4531 15.7048 13.7384 15.677 13.9739 15.6355C14.2093 15.5939 14.4074 15.5426 14.568 15.4817C14.845 15.3708 15.0888 15.2101 15.2993 14.9995C15.5098 14.7888 15.6704 14.545 15.7812 14.2678C15.8422 14.1071 15.8934 13.909 15.935 13.6734C15.9765 13.4378 16.0042 13.1524 16.0181 12.8171C16.0319 12.4817 16.0402 12.2143 16.043 12.0148C16.0458 11.8152 16.0458 11.5229 16.043 11.1377C16.0402 10.7524 16.0388 10.5404 16.0388 10.5016C16.0388 10.4628 16.0402 10.2508 16.043 9.86562C16.0458 9.48041 16.0458 9.18804 16.043 8.9885C16.0402 8.78897 16.0319 8.52154 16.0181 8.18621C16.0042 7.85088 15.9765 7.56544 15.935 7.32988C15.8934 7.09432 15.8422 6.89617 15.7812 6.73543C15.6704 6.4583 15.5098 6.21443 15.2993 6.00381C15.0888 5.79319 14.845 5.63246 14.568 5.5216C14.4074 5.46064 14.2093 5.40937 13.9739 5.3678C13.7384 5.32623 13.4531 5.29851 13.118 5.28466C12.7828 5.2708 12.5155 5.26249 12.3161 5.25972C12.1167 5.25694 11.8244 5.25694 11.4394 5.25972ZM17.144 7.86613C17.1717 8.35388 17.1856 9.23238 17.1856 10.5016C17.1856 11.7709 17.1717 12.6494 17.144 13.1371C17.0886 14.29 16.7452 15.1824 16.1136 15.8142C15.4821 16.4461 14.5902 16.7897 13.4379 16.8451C12.9504 16.8729 12.0723 16.8867 10.8037 16.8867C9.53511 16.8867 8.65705 16.8729 8.16955 16.8451C7.01727 16.7897 6.12536 16.4461 5.49383 15.8142C4.86229 15.1824 4.51882 14.29 4.46342 13.1371C4.43572 12.6494 4.42188 11.7709 4.42188 10.5016C4.42188 9.23238 4.43572 8.35388 4.46342 7.86613C4.51882 6.71326 4.86229 5.8209 5.49383 5.18905C6.12536 4.55719 7.01727 4.21355 8.16955 4.15812C8.65705 4.13041 9.53511 4.11655 10.8037 4.11655C12.0723 4.11655 12.9504 4.13041 13.4379 4.15812C14.5902 4.21355 15.4821 4.55719 16.1136 5.18905C16.7452 5.8209 17.0886 6.71326 17.144 7.86613Z" fill="white"/>
</svg>
