<svg width="465" height="353" viewBox="0 0 465 353" fill="none" xmlns="http://www.w3.org/2000/svg">
<path d="M225.838 208.94C245.638 95.2638 178.661 36.6747 142.699 21.5897C264.671 52.2461 297.697 151.951 298.963 197.972C275.066 170.262 240.256 193.738 225.838 208.94Z" fill="white" fill-opacity="0.25"/>
<path d="M106.151 220.254C145.109 159.711 149.529 73.4909 146.87 37.9488C191.842 80.3933 203.767 166.227 204.109 203.839C166.906 191.863 123.303 209.792 106.151 220.254Z" fill="white" fill-opacity="0.25"/>
<path d="M384.918 235.898C364.303 252.071 330.152 270.168 322.546 274.128C321.52 274.663 320.41 274.994 319.232 275.137L80.2303 304.116C77.157 304.489 73.9902 303.479 71.6365 301.376L15.5383 251.245C9.17381 245.558 11.9413 235.723 20.2258 234.588L416.939 180.226C426.234 178.952 432.669 189.405 426.549 195.986C414.582 208.855 398.487 225.251 384.918 235.898Z" fill="white" fill-opacity="0.25"/>
<path d="M147.52 46.2303C138.274 138.552 108 200.5 54 230.5C100.286 167.592 142.725 86.768 144.875 29.1841" stroke="white" stroke-opacity="0.25"/>
</svg>
