<svg width="125" height="121" viewBox="0 0 125 121" fill="none" xmlns="http://www.w3.org/2000/svg">
<path d="M65.7777 110.817C65.4629 110.825 65.1985 111.093 65.2074 111.43C65.2163 111.766 65.4943 112.009 65.8091 112C66.1239 111.992 66.3778 111.735 66.3689 111.399C66.3599 111.062 66.0925 110.809 65.7777 110.817Z" fill="white"/>
<path d="M67.842 113.711C68.0406 115.415 69.3317 116.456 70.928 116.27C72.5243 116.084 73.5604 114.75 73.3643 113.067C73.1681 111.385 71.8193 110.317 70.0505 110.524C69.1553 110.628 68.4056 111.043 67.9691 111.706L68.4584 112.152C68.832 111.606 69.4178 111.286 70.1081 111.206C71.3485 111.061 72.3462 111.743 72.5708 112.919L67.8251 113.472C67.8352 113.559 67.8345 113.646 67.842 113.711ZM70.8513 115.612C69.7404 115.742 68.8409 115.059 68.6144 113.96L72.6374 113.491C72.6699 114.613 71.9515 115.484 70.8513 115.612Z" fill="white"/>
<path d="M77.1348 114.002L77.3856 115.092L78.1052 114.926L76.8241 109.36L76.0727 109.533L76.7255 112.369C77.0275 113.681 76.489 114.585 75.325 114.853C75.2721 114.865 75.2062 114.869 75.1427 114.884L75.3107 115.614C76.3372 115.378 76.9561 114.823 77.1348 114.002Z" fill="white"/>
<path d="M81.1742 107.972C79.5971 108.528 78.8443 110.083 79.4075 111.681C79.9708 113.278 81.5287 114.007 83.1058 113.451C84.6829 112.895 85.4496 111.347 84.8864 109.749C84.3231 108.152 82.7513 107.416 81.1742 107.972ZM81.4016 108.617C82.5486 108.213 83.7049 108.749 84.149 110.009C84.5931 111.269 84.029 112.412 82.882 112.816C81.735 113.22 80.589 112.68 80.1449 111.421C79.7008 110.161 80.2547 109.022 81.4016 108.617Z" fill="white"/>
<path d="M90.4361 110.325C91.3291 109.809 91.8004 108.997 91.788 108.151C92.491 108.673 93.3314 108.651 94.1492 108.178C94.9764 107.7 95.4145 106.982 95.4199 106.189L95.9417 107.091L96.5809 106.722L93.7218 101.777L93.0544 102.163L94.5546 104.758C95.2069 105.886 94.9388 106.919 93.9329 107.5C93.0305 108.022 92.1943 107.791 91.5909 106.747L89.9711 103.946L89.3037 104.332L90.8039 106.927C91.4562 108.055 91.1975 109.082 90.1822 109.669C89.2892 110.186 88.4529 109.954 87.8496 108.911L86.2298 106.109L85.5624 106.495L87.2202 109.362C88.041 110.782 89.2329 111.021 90.4361 110.325Z" fill="white"/>
<path d="M99.2957 100.849C100.483 102.088 102.141 102.138 103.301 101.025C104.461 99.9131 104.481 98.2239 103.308 97.0013C102.136 95.7787 100.416 95.7427 99.131 96.9754C98.4805 97.5992 98.1339 98.3829 98.1864 99.1751L98.8457 99.235C98.8134 98.5738 99.0873 97.9651 99.5889 97.4841C100.49 96.6198 101.697 96.5606 102.587 97.3625L99.1382 100.67C99.1983 100.732 99.2506 100.802 99.2957 100.849ZM102.842 100.547C102.035 101.322 100.906 101.321 100.062 100.581L102.985 97.7779C103.689 98.6528 103.642 99.7808 102.842 100.547Z" fill="white"/>
<path d="M106.873 95.4754L107.732 96.1926L108.205 95.626L103.822 91.9634L103.328 92.555L105.561 94.4211C106.594 95.2846 106.711 96.3302 105.945 97.2468C105.91 97.2884 105.86 97.3315 105.818 97.3815L106.393 97.8619C107.069 97.0537 107.227 96.2378 106.873 95.4754Z" fill="white"/>
<path d="M106.46 88.2287C105.539 89.6244 105.878 91.3184 107.292 92.2515C108.705 93.1847 110.387 92.8246 111.308 91.4289C112.23 90.0333 111.906 88.3362 110.492 87.403C109.078 86.4699 107.381 86.8331 106.46 88.2287ZM107.031 88.6056C107.701 87.5906 108.946 87.3198 110.061 88.0556C111.176 88.7913 111.417 90.0431 110.747 91.0581C110.077 92.0731 108.837 92.3348 107.722 91.599C106.608 90.8633 106.361 89.6206 107.031 88.6056Z" fill="white"/>
<path d="M109.203 83.6537L108.843 84.3357L115.971 88.093L116.33 87.411L109.203 83.6537Z" fill="white"/>
<path d="M116.434 81.6976C116.786 80.8208 116.698 79.9315 116.166 79.2152L117.214 79.6355L117.489 78.9501L110.232 76.0408L109.945 76.7564L112.898 77.9403C112.035 78.109 111.381 78.6892 111.042 79.5358C110.436 81.0477 111.072 82.6129 112.684 83.2594C114.287 83.9019 115.828 83.2095 116.434 81.6976ZM111.697 79.74C112.15 78.6112 113.315 78.0959 114.555 78.5929C115.785 79.0859 116.282 80.2679 115.829 81.3967C115.381 82.5155 114.201 83.0368 112.971 82.5438C111.731 82.0468 111.248 80.8588 111.697 79.74Z" fill="white"/>
<path d="M112.629 75.4906L116.031 74.0009L118.197 76.7683L118.406 75.9473L116.659 73.7344L119.249 72.6213L119.463 71.7793L116.24 73.1799L113.953 70.2699L113.739 71.112L115.607 73.4675L112.845 74.638L112.629 75.4906Z" fill="white"/>
<path d="M116.953 69.8109C118.655 70.0224 119.973 69.0153 120.171 67.4204C120.369 65.8256 119.319 64.5025 117.638 64.2937C115.957 64.0849 114.6 65.1419 114.38 66.9091C114.269 67.8035 114.495 68.6303 115.035 69.2117L115.585 68.8422C115.143 68.3496 114.971 67.7046 115.057 67.015C115.211 65.7757 116.11 64.9683 117.306 65.0293L116.717 69.7707C116.803 69.7814 116.888 69.8029 116.953 69.8109ZM119.514 67.3388C119.376 68.4487 118.5 69.1605 117.378 69.1197L117.877 65.1002C118.975 65.3351 119.65 66.2397 119.514 67.3388Z" fill="white"/>
<path d="M114.664 57.0309C114.779 58.6991 116.077 59.8396 117.767 59.723C119.457 59.6065 120.575 58.2994 120.46 56.6311C120.345 54.9629 119.057 53.8108 117.367 53.9274C115.677 54.0439 114.549 55.3626 114.664 57.0309ZM115.347 56.9838C115.263 55.7705 116.088 54.7993 117.421 54.7074C118.753 54.6155 119.704 55.4642 119.788 56.6775C119.872 57.8907 119.045 58.8511 117.713 58.943C116.381 59.0349 115.43 58.1971 115.347 56.9838Z" fill="white"/>
<path d="M115.187 52.7776C114.955 52.5995 114.802 52.3075 114.745 51.9978C114.629 51.3677 114.929 50.9591 115.591 50.8372L118.945 50.2196L119.259 51.9282L119.9 51.8102L119.585 50.1016L120.813 49.8754L120.674 49.1172L119.446 49.3434L119.261 48.3395L118.62 48.4575L118.805 49.4614L115.409 50.0868C114.373 50.2776 113.883 50.9751 114.078 52.0323C114.159 52.4702 114.369 52.8951 114.691 53.1449L115.187 52.7776Z" fill="white"/>
<path d="M117.142 41.0951C116.795 40.1697 116.149 39.5885 115.353 39.4458L116.339 39.0765L116.081 38.3849L110.731 40.3875L111.002 41.1096L113.808 40.0588C115.029 39.6019 116.011 40.0574 116.441 41.2066C116.822 42.2235 116.463 43.0303 115.334 43.4529L112.304 44.5875L112.574 45.3095L115.676 44.1483C117.211 43.5734 117.629 42.3968 117.142 41.0951Z" fill="white"/>
<path d="M114.887 35.6129L109.782 36.4962L113.052 32.4722L112.718 31.9003L107.601 32.7649L110.888 28.769L110.515 28.1315L106.669 32.8696L107.036 33.4977L111.986 32.6927L108.855 36.6103L109.222 37.2384L115.243 36.2223L114.887 35.6129Z" fill="white"/>
<path d="M103.144 28.2878C104.214 29.5731 105.933 29.7382 107.235 28.6546C108.537 27.571 108.679 25.8569 107.609 24.5715C106.54 23.2862 104.821 23.1057 103.519 24.1894C102.217 25.273 102.074 27.0024 103.144 28.2878ZM103.67 27.8501C102.892 26.9154 102.993 25.6447 104.019 24.7903C105.046 23.9359 106.314 24.0674 107.092 25.0022C107.87 25.937 107.762 27.1993 106.735 28.0537C105.709 28.9081 104.448 28.7849 103.67 27.8501Z" fill="white"/>
<path d="M104.94 18.2954L102.643 20.8442C102.782 19.9758 102.463 19.162 101.786 18.5513C100.576 17.4608 98.8874 17.5177 97.7314 18.8001C96.5755 20.0826 96.6864 21.776 97.8963 22.8665C98.598 23.499 99.4631 23.7232 100.326 23.4632L99.57 24.302L100.118 24.7964L105.513 18.8116L104.94 18.2954ZM98.4027 22.402C97.4993 21.5878 97.4179 20.3157 98.3122 19.3236C99.2064 18.3315 100.48 18.2808 101.383 19.095C102.279 19.902 102.36 21.1741 101.466 22.1662C100.572 23.1583 99.298 23.209 98.4027 22.402Z" fill="white"/>
<path d="M91.4072 17.9098L92.0553 18.3273L96.4187 11.5539L95.7705 11.1364L91.4072 17.9098Z" fill="white"/>
<path d="M88.8496 16.3955L89.5212 16.7741L93.4777 9.75533L92.8061 9.37674L88.8496 16.3955Z" fill="white"/>
<path d="M84.747 14.4198C86.2772 15.0941 87.8905 14.476 88.5735 12.9258C89.2566 11.3757 88.6198 9.77794 87.0896 9.10362C85.5593 8.4293 83.9405 9.03311 83.2574 10.5832C82.5743 12.1334 83.2167 13.7454 84.747 14.4198ZM85.0228 13.7937C83.9099 13.3033 83.4343 12.1207 83.9729 10.8985C84.5114 9.67628 85.7052 9.22928 86.8181 9.7197C87.931 10.2101 88.3967 11.3883 87.8581 12.6106C87.3195 13.8328 86.1357 14.2842 85.0228 13.7937Z" fill="white"/>
<path d="M80.467 7.87922L80.8 6.8115L80.0951 6.59165L78.3945 12.0443L79.1305 12.2738L79.997 9.49568C80.3979 8.21027 81.3187 7.70126 82.459 8.0569C82.5108 8.07307 82.5698 8.10283 82.632 8.12223L82.8551 7.40697C81.8496 7.09335 81.0354 7.26028 80.467 7.87922Z" fill="white"/>
<path d="M74.6567 11.1877C75.6045 11.3765 76.4796 11.1522 77.0711 10.5172L76.5831 10.0214C76.0872 10.5094 75.4399 10.6462 74.7903 10.5168C73.5656 10.2728 72.8429 9.23202 73.106 7.91149C73.3669 6.60161 74.4354 5.90656 75.6601 6.15053C76.3097 6.27994 76.8531 6.66497 77.124 7.30577L77.7648 7.03482C77.4639 6.21091 76.7395 5.67907 75.7917 5.49026C74.1197 5.15719 72.6723 6.08678 72.3392 7.75875C72.0062 9.43071 72.9847 10.8546 74.6567 11.1877Z" fill="white"/>
<path d="M67.8264 10.2669C69.7657 10.3979 70.7185 9.50456 70.7938 8.38866C70.9805 5.62599 66.2261 6.56731 66.3666 4.48718C66.4179 3.7288 67.0771 3.15298 68.4639 3.24666C69.1356 3.29203 69.88 3.54911 70.5015 4.01554L70.8156 3.39463C70.2374 2.93112 69.3659 2.62193 68.51 2.56412C66.5815 2.43385 65.6497 3.33952 65.5743 4.45543C65.3847 7.26143 70.1405 6.29845 70 8.37857C69.9495 9.12612 69.2917 9.68027 67.8725 9.5844C66.8758 9.51707 65.9379 9.06191 65.432 8.49445L65.0761 9.09077C65.6 9.71386 66.6888 10.1901 67.8264 10.2669Z" fill="white"/>
<path d="M59.1642 10.183C59.479 10.1747 59.7434 9.90694 59.7345 9.57044C59.7256 9.23394 59.4475 8.99148 59.1328 8.99985C58.818 9.00821 58.5641 9.26479 58.573 9.60129C58.582 9.93779 58.8494 10.1914 59.1642 10.183Z" fill="white"/>
<path d="M57.0999 7.28917C56.9013 5.58504 55.6102 4.54391 54.0139 4.72997C52.4176 4.91603 51.3815 6.25026 51.5776 7.93283C51.7738 9.61539 53.1225 10.6826 54.8914 10.4764C55.7866 10.3721 56.5362 9.95673 56.9728 9.29365L56.4835 8.84779C56.1099 9.39422 55.524 9.71395 54.8338 9.79441C53.5934 9.93898 52.5956 9.25722 52.3711 8.08086L57.1168 7.52771C57.1067 7.44143 57.1074 7.35389 57.0999 7.28917ZM54.0906 5.3879C55.2015 5.25841 56.1009 5.94069 56.3275 7.0403L52.3044 7.50922C52.272 6.38698 52.9904 5.51612 54.0906 5.3879Z" fill="white"/>
<path d="M47.8076 6.99799L47.5567 5.90804L46.8372 6.07367L48.1183 11.6398L48.8697 11.4669L48.2169 8.63089C47.9149 7.31872 48.4534 6.41479 49.6174 6.14686C49.6703 6.13469 49.7362 6.13065 49.7997 6.11604L49.6316 5.38588C48.6052 5.62214 47.9863 6.17687 47.8076 6.99799Z" fill="white"/>
<path d="M43.7677 13.0278C45.3448 12.4718 46.0976 10.9168 45.5344 9.31926C44.9711 7.72169 43.4131 6.99295 41.8361 7.54897C40.259 8.105 39.4923 9.65334 40.0555 11.2509C40.6188 12.8485 42.1906 13.5839 43.7677 13.0278ZM43.5402 12.3827C42.3933 12.787 41.237 12.2506 40.7929 10.9909C40.3488 9.73132 40.9129 8.58829 42.0599 8.1839C43.2069 7.77952 44.3529 8.31959 44.797 9.57922C45.2411 10.8388 44.6872 11.9783 43.5402 12.3827Z" fill="white"/>
<path d="M34.5063 10.6748C33.6133 11.1912 33.142 12.0031 33.1544 12.8488C32.4513 12.3271 31.611 12.349 30.7932 12.8219C29.9659 13.3002 29.5278 14.0176 29.5225 14.8109L29.0007 13.9085L28.3614 14.2781L31.2206 19.2227L31.888 18.8368L30.3878 16.2423C29.7355 15.1143 30.0036 14.0812 31.0094 13.4996C31.9119 12.9778 32.7481 13.2092 33.3515 14.2526L34.9713 17.0539L35.6387 16.668L34.1385 14.0735C33.4862 12.9455 33.7449 11.9178 34.7602 11.3308C35.6532 10.8144 36.4894 11.0458 37.0928 12.0892L38.7126 14.8905L39.38 14.5046L37.7222 11.6375C36.9014 10.2181 35.7095 9.97904 34.5063 10.6748Z" fill="white"/>
<path d="M25.6462 20.1505C24.4587 18.9122 22.8008 18.8622 21.6409 19.9745C20.481 21.0869 20.461 22.7761 21.6335 23.9987C22.806 25.2213 24.5256 25.2573 25.8109 24.0247C26.4613 23.4008 26.808 22.6171 26.7554 21.8249L26.0962 21.765C26.1285 22.4262 25.8546 23.0349 25.353 23.5159C24.4517 24.3802 23.2448 24.4394 22.3553 23.6375L25.8037 20.3305C25.7436 20.2678 25.6913 20.1975 25.6462 20.1505ZM22.0994 20.4526C22.9066 19.6785 24.0356 19.6791 24.8803 20.4186L21.957 23.2221C21.2534 22.3472 21.3 21.2192 22.0994 20.4526Z" fill="white"/>
<path d="M18.0685 25.5246L17.2103 24.8074L16.7368 25.374L21.1195 29.0366L21.6139 28.445L19.3809 26.5789C18.3477 25.7154 18.2309 24.6698 18.9969 23.7532C19.0317 23.7116 19.0818 23.6685 19.1236 23.6185L18.5487 23.1381C17.8732 23.9463 17.715 24.7622 18.0685 25.5246Z" fill="white"/>
<path d="M18.4819 32.7714C19.4031 31.3757 19.064 29.6817 17.6502 28.7486C16.2365 27.8154 14.5546 28.1756 13.6334 29.5712C12.7122 30.9668 13.0363 32.6639 14.45 33.5971C15.8638 34.5302 17.5607 34.167 18.4819 32.7714ZM17.911 32.3945C17.241 33.4095 15.9954 33.6803 14.8807 32.9446C13.766 32.2088 13.5253 30.9571 14.1953 29.9421C14.8652 28.927 16.1049 28.6653 17.2196 29.4011C18.3343 30.1368 18.5809 31.3795 17.911 32.3945Z" fill="white"/>
<path d="M15.739 37.3464L16.0985 36.6644L8.97111 32.907L8.61158 33.589L15.739 37.3464Z" fill="white"/>
<path d="M8.50788 39.3024C8.15633 40.1792 8.24435 41.0685 8.77612 41.7848L7.72792 41.3645L7.45315 42.0499L14.7099 44.9592L14.9968 44.2436L12.0437 43.0597C12.9069 42.891 13.5606 42.3108 13.9001 41.4642C14.5062 39.9523 13.8702 38.3871 12.2576 37.7406C10.6551 37.0981 9.114 37.7905 8.50788 39.3024ZM13.2449 41.26C12.7923 42.3888 11.6264 42.9041 10.3867 42.4071C9.15712 41.9141 8.66 40.7321 9.11257 39.6033C9.56109 38.4845 10.7411 37.9632 11.9707 38.4562C13.2104 38.9532 13.6934 40.1412 13.2449 41.26Z" fill="white"/>
<path d="M12.313 45.5094L8.91053 46.9991L6.74454 44.2317L6.53633 45.0527L8.28282 47.2656L5.69282 48.3787L5.47927 49.2207L8.70232 47.8201L10.989 50.7301L11.2025 49.888L9.33537 47.5325L12.0968 46.362L12.313 45.5094Z" fill="white"/>
<path d="M7.98939 51.1891C6.2868 50.9776 4.96901 51.9847 4.77091 53.5796C4.57282 55.1744 5.62305 56.4975 7.30409 56.7063C8.98512 56.9151 10.3419 55.8581 10.5614 54.0909C10.6725 53.1965 10.447 52.3697 9.90643 51.7883L9.3572 52.1578C9.79935 52.6504 9.9709 53.2954 9.88524 53.985C9.73131 55.2243 8.83224 56.0317 7.63619 55.9707L8.22512 51.2293C8.13891 51.2186 8.05404 51.1971 7.98939 51.1891ZM5.42824 53.6612C5.56611 52.5513 6.44236 51.8395 7.56432 51.8804L7.06507 55.8998C5.9672 55.6649 5.29172 54.7603 5.42824 53.6612Z" fill="white"/>
<path d="M10.2778 63.9691C10.1627 62.3009 8.86501 61.1604 7.17507 61.277C5.48513 61.3935 4.3671 62.7006 4.48216 64.3689C4.59722 66.0371 5.88486 67.1892 7.5748 67.0726C9.26474 66.9561 10.3929 65.6374 10.2778 63.9691ZM9.59532 64.0162C9.679 65.2295 8.85346 66.2007 7.521 66.2926C6.18855 66.3845 5.23749 65.5358 5.15381 64.3226C5.07012 63.1093 5.89641 62.1489 7.22887 62.057C8.56132 61.9651 9.51163 62.8029 9.59532 64.0162Z" fill="white"/>
<path d="M9.75494 68.2224C9.9865 68.4005 10.1396 68.6925 10.1967 69.0022C10.3127 69.6323 10.0126 70.0409 9.35048 70.1628L5.99725 70.7804L5.68255 69.0718L5.04181 69.1898L5.3565 70.8984L4.12841 71.1246L4.26806 71.8828L5.49615 71.6566L5.68103 72.6605L6.32178 72.5425L6.13689 71.5386L9.53284 70.9132C10.5687 70.7224 11.0586 70.0249 10.8638 68.9677C10.7832 68.5298 10.5724 68.1049 10.2504 67.8551L9.75494 68.2224Z" fill="white"/>
<path d="M7.80036 79.9049C8.14681 80.8303 8.79339 81.4115 9.5889 81.5542L8.60247 81.9235L8.86136 82.6151L14.2105 80.6125L13.9401 79.8904L11.1334 80.9412C9.91307 81.3981 8.9309 80.9426 8.50069 79.7934C8.11997 78.7765 8.47881 77.9697 9.60761 77.5471L12.6381 76.4125L12.3678 75.6905L9.26611 76.8517C7.73054 77.4266 7.31303 78.6032 7.80036 79.9049Z" fill="white"/>
<path d="M10.0547 85.3871L15.1604 84.5038L11.8901 88.5278L12.2243 89.0997L17.3409 88.2351L14.0542 92.231L14.4267 92.8685L18.2733 88.1304L17.9062 87.5023L12.9561 88.3073L16.0873 84.3897L15.7202 83.7616L9.69861 84.7777L10.0547 85.3871Z" fill="white"/>
<path d="M21.7979 92.7122C20.7282 91.4269 19.0085 91.2618 17.7064 92.3454C16.4044 93.429 16.2629 95.1431 17.3326 96.4285C18.4023 97.7138 20.1206 97.8943 21.4227 96.8106C22.7247 95.727 22.8676 93.9976 21.7979 92.7122ZM21.2721 93.1499C22.0501 94.0846 21.9491 95.3553 20.9225 96.2097C19.8959 97.0641 18.6281 96.9326 17.8501 95.9978C17.0721 95.063 17.18 93.8007 18.2066 92.9463C19.2332 92.0919 20.4941 92.2151 21.2721 93.1499Z" fill="white"/>
<path d="M20.0017 102.705L22.2991 100.156C22.1596 101.024 22.4786 101.838 23.1561 102.449C24.366 103.539 26.0545 103.482 27.2105 102.2C28.3664 100.917 28.2555 99.224 27.0456 98.1335C26.3439 97.501 25.4788 97.2768 24.6158 97.5368L25.3719 96.698L24.8234 96.2036L19.429 102.188L20.0017 102.705ZM26.5392 98.598C27.4426 99.4122 27.524 100.684 26.6297 101.676C25.7355 102.669 24.4618 102.719 23.5585 101.905C22.6632 101.098 22.5818 99.8259 23.476 98.8338C24.3702 97.8417 25.6439 97.791 26.5392 98.598Z" fill="white"/>
<path d="M33.5347 103.09L32.8865 102.673L28.5232 109.446L29.1714 109.864L33.5347 103.09Z" fill="white"/>
<path d="M36.0923 104.604L35.4207 104.226L31.4641 111.245L32.1358 111.623L36.0923 104.604Z" fill="white"/>
<path d="M40.1949 106.58C38.6647 105.906 37.0514 106.524 36.3683 108.074C35.6853 109.624 36.3221 111.222 37.8523 111.896C39.3826 112.571 41.0014 111.967 41.6845 110.417C42.3676 108.867 41.7252 107.255 40.1949 106.58ZM39.9191 107.206C41.032 107.697 41.5076 108.879 40.969 110.102C40.4305 111.324 39.2367 111.771 38.1238 111.28C37.0109 110.79 36.5452 109.612 37.0838 108.389C37.6224 107.167 38.8062 106.716 39.9191 107.206Z" fill="white"/>
<path d="M44.4749 113.121L44.1419 114.188L44.8468 114.408L46.5474 108.956L45.8114 108.726L44.9449 111.504C44.544 112.79 43.6232 113.299 42.4829 112.943C42.4311 112.927 42.3721 112.897 42.3099 112.878L42.0868 113.593C43.0923 113.907 43.9065 113.74 44.4749 113.121Z" fill="white"/>
<path d="M50.2852 109.812C49.3374 109.623 48.4623 109.848 47.8708 110.483L48.3588 110.979C48.8547 110.491 49.5019 110.354 50.1516 110.483C51.3762 110.727 52.099 111.768 51.8359 113.089C51.575 114.398 50.5064 115.093 49.2818 114.849C48.6321 114.72 48.0888 114.335 47.8179 113.694L47.1771 113.965C47.478 114.789 48.2024 115.321 49.1502 115.51C50.8222 115.843 52.2696 114.913 52.6027 113.241C52.9357 111.569 51.9572 110.145 50.2852 109.812Z" fill="white"/>
<path d="M57.1155 110.733C55.1762 110.602 54.2234 111.495 54.1481 112.611C53.9614 115.374 58.7158 114.433 58.5753 116.513C58.524 117.271 57.8648 117.847 56.478 117.753C55.8063 117.708 55.0619 117.451 54.4404 116.984L54.1263 117.605C54.7045 118.069 55.576 118.378 56.4319 118.436C58.3604 118.566 59.2922 117.66 59.3676 116.545C59.5572 113.739 54.8014 114.702 54.9419 112.621C54.9924 111.874 55.6502 111.32 57.0694 111.416C58.0661 111.483 59.004 111.938 59.5099 112.506L59.8658 111.909C59.3419 111.286 58.2531 110.81 57.1155 110.733Z" fill="white"/>
<path d="M62.93 83.9293L62.93 37M48 67.4377C51.7927 67.4377 62.93 70.7816 62.93 84.0019C62.93 70.7816 74.0674 67.4377 77.8601 67.4377" stroke="#FFFFFC" stroke-width="1.36403"/>
</svg>
